<?xml version="1.0" encoding="UTF-8" standalone="no"?>
<!-- Created with Inkscape (http://www.inkscape.org/) -->

<svg
   version="1.1"
   id="svg1"
   width="1024"
   height="1024"
   viewBox="0 0 1024 1024"
   sodipodi:docname="blackscope.svg"
   inkscape:version="1.4.2 (ebf0e940d0, 2025-05-08)"
   xmlns:inkscape="http://www.inkscape.org/namespaces/inkscape"
   xmlns:sodipodi="http://sodipodi.sourceforge.net/DTD/sodipodi-0.dtd"
   xmlns="http://www.w3.org/2000/svg"
   xmlns:svg="http://www.w3.org/2000/svg">
  <defs
     id="defs1" />
  <sodipodi:namedview
     id="namedview1"
     pagecolor="#ffffff"
     bordercolor="#000000"
     borderopacity="0.25"
     inkscape:showpageshadow="2"
     inkscape:pageopacity="0.0"
     inkscape:pagecheckerboard="0"
     inkscape:deskcolor="#d1d1d1"
     inkscape:zoom="0.61474609"
     inkscape:cx="664.50199"
     inkscape:cy="226.92295"
     inkscape:window-width="1704"
     inkscape:window-height="996"
     inkscape:window-x="0"
     inkscape:window-y="0"
     inkscape:window-maximized="1"
     inkscape:current-layer="g1" />
  <g
     inkscape:groupmode="layer"
     inkscape:label="Image"
     id="g1">
    <g
       id="g30605"
       transform="translate(135.72856,-127.67686)">
      <path
         style="fill:#a7d4f2"
         d="m 606.67532,834.08261 -1.5,-0.94815 V 790.683 c 0,-23.3483 0.34697,-42.79922 0.77105,-43.22425 3.07816,-3.08515 17.72895,-0.95485 17.72895,2.57787 0,2.55719 0.14868,2.54221 4.57409,-0.46096 19.40468,-13.16837 44.89459,2.71297 44.91769,27.98571 l 0.008,9 -2.80036,5.70262 c -8.01808,16.32787 -36.81514,24.74575 -44.13528,12.90151 -1.94692,-3.15018 -2.56436,0.0271 -2.56436,13.19587 0,9.78889 -0.37855,14.67856 -1.2,15.5 -1.42942,1.42943 -13.61858,1.6001 -15.8,0.22124 z m 39.98007,-41.77279 c 11.18618,-5.62013 10.99643,-23.42046 -0.3103,-29.11022 -10.99901,-5.5349 -22.66977,2.12521 -22.66977,14.87932 0,11.70252 12.54712,19.47259 22.98007,14.2309 z m -455.79582,17.68291 c -11.16152,-2.19704 -18.20211,-10.4307 -18.1678,-21.24645 0.052,-16.40097 19.36762,-24.78852 41.73355,-18.12226 1.85087,0.55165 2.25,0.28348 2.25,-1.51176 0,-8.15587 -12.13179,-11.57747 -25,-7.05089 -7.86956,2.76824 -8.36249,2.63118 -11.03151,-3.06727 -2.96141,-6.32273 -2.31979,-7.56971 5.6253,-10.93273 l 5.90621,-2.5 h 12.5 12.5 l 5.25433,2.91129 c 11.32263,6.27357 13.24567,11.86328 13.24567,38.50122 0,23.28104 0.45057,22.31035 -10.1575,21.88317 l -7.3425,-0.29568 -0.31955,-2.25 c -0.3965,-2.79182 -0.40519,-2.79141 -4.97525,0.23291 -5.78459,3.82806 -13.75303,5.07591 -22.02095,3.44845 z m 16.81575,-15.01677 c 8.56205,-1.97218 12.13358,-8.62656 5.81269,-10.83004 -13.26325,-4.62359 -26.35468,-0.13926 -21.44934,7.34725 2.58183,3.94036 8.2089,5.19369 15.63665,3.48279 z m 62.92045,15.11946 c -9.95744,-1.78183 -19.15219,-8.73351 -23.64066,-17.8735 l -2.77979,-5.66055 0.005,-9 c 0.008,-14.04393 5.40745,-23.154 17.19073,-29.00395 l 5.80421,-2.88157 9.5,-0.40099 9.5,-0.40098 5.8612,2.2072 c 3.22367,1.21396 7.25268,3.45049 8.95338,4.97006 l 3.09217,2.76285 -5.61633,5.84442 -5.61632,5.84442 -4.75853,-2.37652 c -14.17252,-7.0781 -28.34366,3.34722 -24.40954,17.95743 3.05941,11.36179 16.83596,15.39597 26.53174,7.76926 l 2.79887,-2.20158 5.36646,5.90513 c 6.68584,7.35696 6.51881,8.14009 -2.71334,12.72196 -8.19327,4.06629 -16.55832,5.3399 -25.06931,3.81691 z m 141.57955,-0.0689 c -11.16659,-1.26931 -27.46666,-7.82987 -28.9303,-11.64406 -0.67847,-1.76806 7.36643,-15.2998 9.10358,-15.31247 0.6453,-0.005 2.4453,1.05494 4,2.35478 14.48831,12.11325 42.32672,10.23767 42.32672,-2.85172 0,-5.63145 -5.90967,-8.16584 -24.5,-10.50692 -19.77412,-2.49015 -28.90723,-10.53082 -28.96989,-25.50471 -0.0989,-23.62671 34.24149,-34.9319 61.68192,-20.3063 8.72352,4.64959 8.50893,8.01301 -1.15577,18.11504 -0.42554,0.4448 -3.86192,-0.88876 -7.63639,-2.96347 l -6.86266,-3.7722 -9.0286,-0.34494 c -10.24185,-0.3913 -14.83664,1.18904 -17.50834,6.02187 l -1.52027,2.75 1.53633,2.75 c 2.19721,3.93297 5.3763,5.10886 17.05127,6.30693 44.51809,4.56842 51.15445,50.77217 7.8265,54.48978 -3.52775,0.30268 -7.5391,0.6741 -8.9141,0.82537 -1.375,0.15128 -5.2,-0.0319 -8.5,-0.40698 z m 74.50539,-1.63309 c -26.69397,-9.33936 -28.68487,-48.22725 -3.05784,-59.72798 20.00853,-8.97929 47.71265,0.46165 35.7646,12.18777 -4.93591,4.84422 -5.0434,4.86631 -10.85294,2.23017 -13.04847,-5.92089 -24.27179,1.51452 -23.64505,15.66475 0.59724,13.48403 14.97548,20.46385 25.74815,12.49927 4.07119,-3.00996 4.33329,-2.91583 9.48275,3.40568 5.54308,6.80472 5.54114,6.76069 0.44069,9.98046 -8.9,5.61833 -23.83216,7.27542 -33.88036,3.75988 z m 64.99461,0.73287 C 537.32944,804.74661 529.2089,793.52853 529.1881,778.06137 l -0.0128,-9.5 2.87612,-5.67606 c 14.13801,-27.90165 57.27751,-22.10575 63.6038,8.54533 4.94366,23.9522 -19.7288,45.0992 -43.97992,37.69561 z m 19.10212,-17.33481 c 4.40841,-2.94501 6.89439,-8.02016 6.89633,-14.07894 0.007,-21.09601 -28.17666,-22.82893 -30.65715,-1.88501 -1.64683,13.90484 12.55757,23.44821 23.76082,15.96395 z m 131.89788,17.38752 c -28.43782,-9.28137 -31.09483,-48.33599 -4.14796,-60.96962 l 5.64796,-2.64797 h 9.5 c 18.45773,0 29.57044,10.19649 30.77742,28.23987 0.71937,10.75394 1.86964,10.26013 -23.89986,10.26013 -12.03266,0 -21.87756,0.24735 -21.87756,0.54966 0,8.64214 17.00571,13.13836 28.43641,7.51845 l 4.93641,-2.42699 4.33837,4.92944 c 5.5196,6.27161 5.26146,7.18555 -3.22215,11.40813 l -6.98904,3.47869 -10.5,0.23807 c -5.775,0.13094 -11.625,-0.12909 -13,-0.57786 z m 24,-40.48273 c 0,-2.22031 -3.70253,-6.269 -6.97115,-7.62291 -7.49826,-3.10588 -20.02885,1.38309 -20.02885,7.17515 v 1.8129 h 13.5 c 10.74061,0 13.5,-0.27903 13.5,-1.36514 z M 61.132767,807.81107 c -0.263883,-0.68767 -0.36226,-20.15017 -0.218616,-43.25 l 0.261172,-41.9997 23.5,-0.2988 c 27.447887,-0.34901 33.035297,0.56927 40.062327,6.58415 9.7977,8.38647 10.86151,22.52287 2.35402,31.28151 l -3.46457,3.56685 3.77411,2.43315 c 16.11724,10.39068 9.48883,35.33738 -11.00644,41.42382 -6.77192,2.01104 -54.503838,2.23477 -55.262003,0.25902 z m 49.430813,-18.32166 c 15.41032,-6.16599 4.51823,-16.60852 -16.888257,-16.19121 l -13.5,0.26317 -0.288932,8.75 -0.288933,8.75 h 13.518696 c 9.958846,0 14.553236,-0.41394 17.447426,-1.57196 z m -3.01637,-34.53322 c 5.74,-2.00098 7.13431,-9.17158 2.49325,-12.82224 l -2.63485,-2.07258 H 93.540465 79.675323 v 7.33334 c 0,4.03333 0.3,7.63333 0.666667,8 1.111306,1.1113 23.8089,0.74544 27.20522,-0.43852 z m 38.23923,51.85518 c -1.0771,-2.88722 -0.88052,-84.31414 0.20618,-85.40072 1.74969,-1.7495 15.23598,-1.65314 17.01066,0.12154 l 1.67204,1.67204 v 40.99431 c 0,26.34608 -0.36989,41.68547 -1.03518,42.92858 l -1.03518,1.93425 h -7.98957 -7.98957 z m 166.51013,0.70538 c -0.34168,-0.89042 -0.62125,-20.46631 -0.62125,-43.50198 v -41.88303 l 1.93426,-1.03518 c 2.44405,-1.30802 11.12358,-1.34389 14.50064,-0.0599 l 2.5651,0.97525 v 23.52475 c 0,12.93862 0.3375,23.52398 0.75,23.52302 0.4125,-9.5e-4 5.025,-4.96365 10.25,-11.02823 10.63877,-12.34824 10.31027,-12.17192 21.91951,-11.76509 11.20047,0.39251 11.19067,0.44751 -2.84551,15.97278 -14.45887,15.99278 -14.67223,11.77374 1.48132,29.29084 16.00565,17.35671 15.95282,16.9465 2.2297,17.31409 l -10.55228,0.28265 -2.72695,-3.28265 c -1.49982,-1.80546 -6.61468,-7.53086 -11.36637,-12.72312 l -8.63942,-9.44046 -0.5,12.44046 -0.5,12.44046 -8.62875,0.28717 c -7.20248,0.2397 -8.73143,0.0196 -9.25,-1.33179 z m 73.19995,-154.79267 c -23.81528,-10.52121 -56.48281,-32.59573 -77.5712,-52.41741 -7.81575,-7.34629 -8.36966,-5.45315 6.11221,-20.89013 6.78235,-7.22966 14.02966,-15.21716 16.10513,-17.75 4.69891,-5.7344 4.50012,-5.74577 15.02022,0.85896 13.23135,8.30689 22.44801,11.47328 41.15227,14.13787 l 3.13983,0.44729 2.60472,8.22536 c 4.83571,15.27053 11.70834,22.49136 23.49048,24.68062 3.09383,0.57486 7.73611,1.52989 10.31618,2.12227 l 4.69104,1.07707 6.00608,-4.07865 c 68.65183,-46.62057 113.44528,-129.05146 122.14759,-224.78141 1.30263,-14.3296 6.19327,-17.55573 20.71425,-13.66426 l 2.25,0.60298 v 4.84512 c 0,89.58005 -54.27361,194.58619 -128,247.64863 -34.84432,25.07819 -56.29928,34.18387 -68.1788,28.93569 z m -159.8212,-24.16067 c -20.68737,-6.67669 -29.69304,-34.07672 -17.18988,-52.30074 1.47944,-2.15636 11.46488,-11.71842 22.18988,-21.24902 10.725,-9.5306 24,-21.41568 29.5,-26.41128 11.35522,-10.31385 28.84534,-25.5653 41.76652,-36.42056 10.80616,-9.0784 10.28301,-8.09891 7.38833,-13.83294 C 254.44881,369.63528 398.03,266.55363 486.30003,351.29639 c 90.29644,86.6882 -18.48426,235.93872 -128.40913,176.18132 -3.45643,-1.87898 -6.64157,-3.41634 -7.07808,-3.41634 -0.43651,0 -11.33352,11.8125 -24.21558,26.25 -12.88205,14.4375 -33.00755,36.6957 -44.72333,49.46265 l -21.30142,23.21266 -6.67336,3.28734 -6.67336,3.28735 -8.52522,0.22719 c -5.32455,0.1419 -10.21469,-0.31807 -13.02523,-1.22515 z M 430.6965,512.16995 c 64.07987,-17.17818 84.90823,-96.97017 37.51463,-143.7159 -44.32827,-43.7223 -121.9858,-23.82577 -140.42685,35.97858 -19.52684,63.3256 39.20841,124.81469 102.91222,107.73732 z m -31.54462,-7.03051 c -60.95844,-9.76156 -86.38431,-81.47894 -44.97656,-126.86297 45.90164,-50.30946 130.33515,-16.00663 129.92558,52.7849 l -0.0744,12.5 -3.18707,9.6393 c -11.36546,34.37488 -47.57959,57.40063 -81.68753,51.93877 z m 64.15708,-110.56573 c 4.32309,-11.26579 -29.69629,-31.78204 -52.63364,-31.74206 -15.96334,0.0278 -23.35229,4.08213 -9.95146,5.46035 22.13693,2.27669 37.68293,8.88546 53.53735,22.7593 5.9564,5.21231 8.08176,6.03974 9.04775,3.52241 z M 242.66034,509.52962 C 221.18468,464.02359 207.78681,404.79288 205.97905,347.3652 l -0.60428,-19.19618 1.65028,-2.51864 c 2.32159,-3.54319 4.03738,-4.25124 14.71794,-6.07354 49.23984,-8.40126 101.44898,-25.33973 145.27844,-47.13341 18.82223,-9.35914 18.0023,-9.3588 38.21651,-0.0158 26.48256,12.24018 52.37404,21.60301 77.62857,28.07191 15.64318,4.00697 16.49586,4.62962 11.94115,8.71977 l -3.36767,3.02417 7.87749,-0.29849 c 8.4004,-0.31831 10.35512,0.23353 10.36244,2.92543 l 0.005,1.69098 10.7454,0.34464 c 13.14512,0.4216 13.41215,0.60722 13.03751,9.06275 l -0.29211,6.59261 -10,-0.047 c -5.5,-0.0258 -10.9,-0.40763 -12,-0.84842 -1.1,-0.44079 -6.1625,-0.73078 -11.25,-0.64441 l -9.25,0.15703 v -3.53955 -3.53955 l -2.75,-0.54806 c -24.41089,-4.86493 -70.23435,-20.44793 -91.48001,-31.10923 -10.93097,-5.48527 -8.62516,-5.77766 -27.89227,3.53681 -39.08096,18.89324 -81.5501,33.08372 -125.87772,42.06031 -5.775,1.16948 -11.57859,2.35302 -12.89688,2.63011 l -2.39688,0.50379 0.67789,12.19408 c 2.97974,53.60075 15.8457,107.50677 35.46893,148.60841 3.55267,7.44121 3.66089,7.12601 -4.96589,14.46217 -9.09647,7.73556 -8.96418,7.79303 -15.90215,-6.90825 z M 537.37797,389.43069 c -1.30521,-1.30521 -0.80987,-18.11895 0.54735,-18.57954 0.6875,-0.23331 4.97875,-0.23307 9.53611,5.3e-4 l 8.2861,0.42474 -0.2861,9.14248 -0.28611,9.14247 -8.54735,0.28598 c -4.70105,0.15729 -8.86355,-0.0302 -9.25,-0.41666 z m 22.7129,-24.28598 c -0.22855,-0.22917 -0.41555,-3.95796 -0.41555,-8.28621 v -7.86955 l 9.75,0.28621 9.75,0.28621 0.5,6.84738 c 0.275,3.76606 0.21908,7.30107 -0.12427,7.85559 -0.5902,0.95318 -18.57606,1.76685 -19.46018,0.88037 z m -45.79522,-3.63036 c -1.12581,-2.93381 -0.67929,-16.99402 0.57967,-18.25298 1.63788,-1.63787 15.89144,-1.58484 18.1512,0.0675 l 1.73345,1.26753 -0.29232,8.98247 -0.29233,8.98246 -9.62967,0.28477 -9.62967,0.28476 z m 29.59144,-23.28168 c -0.94215,-0.61184 -1.2108,-3.50085 -1,-10.75394 l 0.28823,-9.91736 h 10.5 10.5 v 10.5 10.5 l -9.5,0.25395 c -5.225,0.13967 -10.0797,-0.12252 -10.78823,-0.58265 z m 32.78823,-10.1713 v -11.06766 l 10.75,0.28383 10.75,0.28383 v 10.5 10.5 l -10.75,0.28384 -10.75,0.28383 z m -58.35126,-14.75934 c -1.23411,-1.99682 -1.81014,-17.07054 -0.72951,-19.08972 l 1.15114,-2.15094 h 8.76482 c 10.99286,0 11.16481,0.16942 11.16481,11 0,5.35556 -0.45271,9.05272 -1.2,9.8 -1.32925,1.32925 -18.3599,1.72112 -19.15126,0.44066 z m 50.20739,-5.98205 -7.64386,-0.33891 -0.59248,-2.20985 c -0.97712,-3.64451 -0.6954,-15.70005 0.4154,-17.77559 l 1.03518,-1.93426 h 9.85783 c 11.60959,0 11.0718,-0.58804 11.0718,12.10654 v 8.94297 l -2.5651,0.97525 c -1.4108,0.53638 -2.8733,0.88468 -3.25,0.774 -0.37669,-0.11068 -4.12464,-0.35375 -8.32877,-0.54015 z m 25.62756,-19.47393 c -0.31451,-1.25657 -0.4395,-6.33468 -0.27776,-11.28468 l 0.29407,-9 h 10.5 10.5 v 11 11 l -10.22224,0.28468 -10.22225,0.28468 z"
         id="path30613" />
      <path
         style="fill:#5aa6ee"
         d="m 606.67532,790.56137 v -42.5 h 7.525 7.525 l 0.6,3 c 0.72739,3.63695 0.2835,3.63231 5.91367,0.0618 21.81208,-13.83281 48.08667,5.82499 43.3569,32.43823 -3.73459,21.01356 -29.29125,33.15631 -43.90428,20.86025 -1.84084,-1.54896 -3.68638,-2.31709 -4.66494,-1.94157 l -1.61912,0.62131 0.69987,13.23001 c 0.90966,17.19601 1.13359,16.73 -8.03909,16.73 h -7.39301 z m 42.76344,1.83069 c 13.86165,-10.33204 5.74801,-33.53296 -11.23436,-32.12465 -17.77382,1.47394 -21.93047,26.82975 -5.52856,33.72453 3.98193,1.67386 13.60272,0.75564 16.76292,-1.59988 z m -460.61969,16.523 c -18.53634,-5.3348 -21.50131,-28.39481 -4.76796,-37.08264 5.36419,-2.78505 19.69201,-3.54532 27.45388,-1.45678 l 5.32967,1.43409 0.53421,-1.39214 c 3.2827,-8.55458 -14.41645,-14.12305 -27.07066,-8.51691 -6.43352,2.85022 -6.20226,2.92427 -9.17247,-2.93716 l -2.58328,-5.09785 1.68263,-1.85929 c 11.00478,-12.16014 45.17617,-7.32186 52.01408,7.3646 l 2.41662,5.19039 0.01,21.63337 0.01,21.63337 -2.25,0.60298 c -6.92958,1.85706 -13.11843,0.51178 -14.47141,-3.14566 l -0.82104,-2.21949 -3.47877,2.33495 c -6.78917,4.55688 -16.45817,5.92505 -24.83503,3.51417 z m 21.06077,-13.89371 c 4.19517,-1.16514 8.02989,-5.36733 7.58995,-8.31727 -0.94426,-6.33157 -24.85377,-6.23892 -26.44536,0.10248 -1.85937,7.40833 7.33546,11.41427 18.85541,8.21479 z m 56.00044,13.20387 c -39.34308,-14.0208 -21.1534,-69.9846 20.21006,-62.17988 14.60106,2.75502 18.37582,7.0334 12.42845,14.08663 -4.6447,5.50833 -5.73352,5.78952 -11.34347,2.9294 -11.56486,-5.8961 -24.5,1.67136 -24.5,14.33327 0,13.877 12.38174,20.75968 25.45073,14.14737 l 5.46635,-2.76572 4.52492,4.89254 c 6.04736,6.53867 5.71635,8.03294 -2.73095,12.32825 l -6.78896,3.45207 -8.71104,0.33154 c -6.64743,0.253 -9.96542,-0.11549 -14.00609,-1.55547 z m -203.454957,-0.24394 -1.75,-1.01929 v -41.25031 c 0,-30.75024 0.305455,-41.55576 1.2,-42.45031 1.688867,-1.68886 41.193307,-1.60001 49.354087,0.11101 19.83554,4.15879 28.19913,23.93578 15.49488,36.64002 l -3.84553,3.84554 3.61616,2.35172 c 18.35045,11.93396 8.83072,37.90303 -15.34571,41.86191 -7.94691,1.3013 -46.457192,1.22993 -48.723887,-0.0903 z m 45.249997,-17.00532 c 5.63908,-1.29891 9,-4.34414 9,-8.15464 0,-8.05867 -3.91336,-9.75995 -22.450337,-9.75995 h -14.54966 v 8.83334 c 0,4.85833 0.3,9.13333 0.666667,9.5 1.054073,1.05407 22.356,0.72772 27.33333,-0.41875 z m 1.38536,-36.0443 c 13.30635,-6.06278 2.84935,-16.04043 -16.385357,-15.63425 l -12.5,0.26396 -0.290442,8.25 -0.290442,8.25 h 13.493389 c 7.898672,0 14.521442,-0.46841 15.972852,-1.12971 z m 38.29284,52.87971 -1.70407,-1.25 0.26294,-42.5 0.26293,-42.5 h 8.5 8.5 l 0.26294,42.5 0.26293,42.5 -1.70406,1.25 c -0.93724,0.6875 -4.23205,1.25 -7.32181,1.25 -3.08975,0 -6.38457,-0.5625 -7.3218,-1.25 z m 166.56093,0.41895 c -0.98922,-0.62797 -1.20467,-10.05079 -1,-43.73469 l 0.26087,-42.93426 7.3425,-0.29567 c 10.72459,-0.43187 10.1575,-1.85094 10.1575,25.41812 0,12.85765 0.26876,23.37755 0.59724,23.37755 0.66715,0 6.23173,-6.10274 14.81703,-16.25 l 5.71098,-6.75 h 10.0107 c 12.4525,0 12.56274,-0.73066 -2.41105,15.98124 l -11.7751,13.14193 4.7751,5.31407 c 2.62631,2.92274 8.7126,9.58466 13.5251,14.80426 11.53625,12.51214 11.48718,12.7585 -2.54136,12.7585 h -8.12778 l -7.54043,-8.22221 c -4.14723,-4.52222 -9.66822,-10.48472 -12.26885,-13.25 l -4.72843,-5.02779 -0.0216,11.67858 c -0.0263,14.22791 -0.40512,14.82826 -9.34301,14.80611 -3.39821,-0.008 -6.74596,-0.3755 -7.43944,-0.81574 z m 90.76087,-0.68612 c -17.74068,-4.84921 -21.64568,-8.87137 -16.46927,-16.96341 4.02381,-6.29022 4.41517,-6.4252 8.84105,-3.04942 15.13996,11.54781 42.62822,8.98768 42.62822,-3.97019 0,-7.03066 -5.78437,-10.67552 -19,-11.9723 -24.46267,-2.40041 -34.25,-9.5523 -34.25,-25.02751 0,-22.07446 31.6034,-32.91627 58.0646,-19.91954 9.73315,4.78055 9.79108,5.65627 1.04705,15.82997 -0.44958,0.52307 -3.24783,-0.4036 -6.57708,-2.17807 -15.5742,-8.30096 -36.28457,-5.1298 -36.28457,5.55586 0,6.87824 3.89404,8.80166 22.5,11.11362 24.2354,3.01148 35.40687,15.07257 30.42892,32.85206 -4.12719,14.74086 -29.52068,23.58062 -50.92892,17.72893 z m 85.38268,0.63148 c -22.47219,-5.82064 -30.84088,-33.85561 -15.36704,-51.47933 8.85219,-10.08209 28.04355,-13.14156 41.5179,-6.61874 6.99432,3.38589 7.28908,4.32501 2.89705,9.23026 -4.79062,5.35042 -4.50764,5.265 -9.31605,2.81194 -11.73262,-5.98554 -24.99625,0.50363 -26.71895,13.07211 -2.18392,15.93341 12.09891,25.06024 27.45499,17.54395 l 4.35058,-2.12947 3.88462,4.47749 c 4.93109,5.68367 4.70584,6.61688 -2.47598,10.25816 -6.30088,3.19463 -19.37839,4.60755 -26.22712,2.83363 z m 62.11732,-0.44794 c -34.60152,-11.50697 -27.02568,-60.62889 9.40714,-60.99608 42.75908,-0.43094 45.08651,59.69007 2.39703,61.91886 -4.89271,0.25545 -9.29642,-0.0888 -11.80417,-0.92278 z m 14.95308,-12.77502 c 16.48748,-4.57744 15.99499,-30.51946 -0.659,-34.71298 -11.31704,-2.84966 -20.79408,5.27618 -20.79408,17.82935 0,12.59748 9.6204,20.16876 21.45308,16.88363 z m 136.04692,12.70983 c -15.48217,-4.89637 -24.44261,-19.64094 -21.52556,-35.42071 6.62331,-35.82881 60.98135,-34.03221 61.36916,2.02833 0.0947,8.80087 1.60789,8.24366 -23.42538,8.62574 l -21.91822,0.33453 v 1.51117 c 0,9.40718 18.02224,14.87149 29.28963,8.88056 l 4.58751,-2.4392 3.56143,3.94209 c 4.48189,4.96091 4.45775,6.06905 -0.18857,8.65569 -8.94317,4.97876 -22.88985,6.6839 -31.75,3.8818 z M 728.3232,770.5366 c 2.15164,-5.60706 -9.60217,-13.309 -18.31641,-12.00222 -7.15513,1.07297 -14.90643,9.6187 -11.6648,12.86033 1.53125,1.53125 29.37009,0.73446 29.98121,-0.85811 z M 379.5559,649.18823 c -28.32564,-14.24124 -76.88058,-49.27241 -76.88058,-55.46741 0,-1.67629 11.89197,-14.65945 13.42738,-14.65945 1.18816,0 7.17307,-5.95987 15.80854,-15.74241 l 3.73592,-4.23217 6.26408,4.05495 c 12.38999,8.02044 30.1604,14.91963 38.42888,14.91963 5.57698,0 8.01962,1.50427 8.7481,5.38738 2.92854,15.61048 13.70039,26.62071 28.458,29.08776 4.19601,0.70146 8.34691,1.57791 9.22422,1.94767 6.39991,2.6974 52.89037,-38.89368 72.0947,-64.49702 32.73615,-43.64405 56.68834,-109.86563 60.46799,-167.17823 0.78795,-11.94811 0.73541,-11.89958 12.49148,-11.53641 l 9.35071,0.28885 -0.25687,7 c -4.15868,113.32918 -70.14805,219.57465 -166.77668,268.517 -19.4075,9.82989 -19.24996,9.82028 -34.58587,2.10986 z M 227.22781,628.46415 c -29.7236,-9.48318 -32.62104,-40.96103 -5.92807,-64.40278 5.94968,-5.225 20.31533,-18.05 31.92368,-28.5 21.69512,-19.53025 35.77488,-31.84606 50.2019,-43.91244 9.46662,-7.91764 9.22691,-7.15952 5.12217,-16.19924 -50.27871,-110.72682 94.15062,-208.75993 179.62783,-121.92451 85.0121,86.36291 -16.91945,227.402 -126.43998,174.95055 l -11.43999,-5.47882 -1.64843,1.78223 c -0.90663,0.98023 -11.27161,12.58223 -23.03328,25.78223 -72.92914,81.84757 -76.68935,84.82495 -98.38583,77.90278 z M 424.4805,513.96631 c 41.5005,-6.46809 72.08365,-45.16811 69.86306,-88.40494 -3.79055,-73.80551 -91.28336,-108.36522 -144.53045,-57.08962 -60.84556,58.59275 -9.51453,158.61481 74.66739,145.49456 z m -33.75775,-11.96627 c -71.2368,-18.65106 -74.42471,-118.5958 -4.54743,-142.56758 l 8,-2.74444 13,0.0158 c 23.55339,0.0285 38.2129,5.85034 53.54197,21.26337 l 9.54197,9.59422 4.75443,9.5 c 28.33686,56.621 -23.3003,120.90709 -84.29094,104.93867 z m 83.41209,-91.11732 c -7.49521,-29.02782 -33.35474,-49.82135 -61.95952,-49.82135 -21.68677,0 -29.53792,6.46295 -11.43114,9.40994 39.01463,6.34988 65.17065,25.12064 71.8879,51.59006 1.90417,7.5034 2.50101,7.78256 2.82508,1.32135 0.17609,-3.51086 -0.39486,-8.90806 -1.32232,-12.5 z M 248.30992,519.87346 c -20.97147,-32.47957 -41.05841,-117.45547 -41.92998,-177.38085 -0.27484,-18.89698 0.58013,-20.36212 12.79538,-21.92707 38.966,-4.99212 103.00677,-25.51503 147.06893,-47.13065 20.61088,-10.1111 18.03352,-10.05295 37.99874,-0.85725 26.14478,12.04191 56.40255,22.94577 80.43233,28.98504 12.77333,3.21025 13.51706,3.80554 9.25,7.40377 l -3.25,2.74058 -0.0153,4.42717 c -0.0235,6.80519 -0.75868,7.41615 -7.12205,5.91898 -29.62847,-6.97097 -67.73592,-20.34897 -90.22559,-31.67458 l -6.9316,-3.4907 -16.60272,7.9923 c -41.09495,19.78251 -79.32629,32.60078 -127.10273,42.61524 l -15.5,3.24897 0.30039,8.90848 c 1.7113,50.75182 16.46798,114.37341 35.05375,151.12997 4.19343,8.29322 4.19226,8.29772 -3.90339,14.96928 -8.53267,7.03171 -8.45659,7.00132 -10.31615,4.12132 z m 275.07565,-158.60487 -7.78975,-0.29277 0.28975,-8.20723 0.28975,-8.20722 h 8 8 l 0.29486,7.90515 c 0.35292,9.46171 0.65588,9.16817 -9.08461,8.80207 z m 54.72972,-24.50306 c -0.28942,-0.75423 -0.39432,-5.15872 -0.2331,-9.78774 l 0.29313,-8.41642 h 9.5 9.5 v 9.5 9.5 l -9.2669,0.28775 c -7.13048,0.22142 -9.38821,-0.0284 -9.79313,-1.08359 z m -33.43997,-8.59316 v -8.96405 l 8.58887,-0.32347 c 10.45724,-0.39384 10.58328,-0.27241 10.2049,9.83173 l -0.29377,7.84479 -9.25,0.28753 -9.25,0.28753 z m -25.5,3.97584 -8,-0.58684 -0.29381,-7.25 -0.29381,-7.25 7.79381,0.11832 c 4.2866,0.0651 9.14381,0.40699 10.79381,0.75982 l 3,0.64151 v 6.99018 6.99017 l -2.5,0.0868 c -1.375,0.0478 -6.1,-0.17724 -10.5,-0.5 z m 0.16667,-20.7535 c -0.36667,-0.36667 -0.66667,-4.41667 -0.66667,-9 v -8.33334 h 9 9 v 9 9 h -8.33333 c -4.58333,0 -8.63333,-0.3 -9,-0.66666 z m 42.75882,-6.66692 c -0.28146,-0.73348 -0.37984,-5.12098 -0.21862,-9.75 l 0.29313,-8.41642 h 9 9 l 0.28622,9.75 0.28621,9.75 h -9.0676 c -6.63471,0 -9.2049,-0.3578 -9.57934,-1.33358 z m 33.77451,-16.86642 c -1.28135,-1.28135 -1.62589,-11.42055 -0.56784,-16.71077 l 0.63215,-3.16078 9.11785,0.28578 9.11784,0.28577 0.28973,9.41643 c 0.21105,6.85917 -0.0605,9.63865 -1,10.23469 -2.04324,1.29632 -16.22538,1.01323 -17.58973,-0.35112 z"
         id="path30612" />
      <path
         style="fill:#9ea2a6"
         d="m 607.67532,790.51568 v -41.54569 l 6.75,0.29569 6.75,0.29569 0.31336,3.25 c 0.39002,4.04503 0.38549,4.04534 6.94427,-0.47187 l 5.40401,-3.72188 6.82787,-0.38581 c 18.55556,-1.04848 30.06643,10.36435 30.12809,29.87148 0.0748,23.65624 -25.91558,38.47854 -43.41802,24.76131 -6.28032,-4.92209 -6.69958,-4.06693 -6.69958,13.66539 v 15.53138 h -6.5 -6.5 z m 42.6491,2.79556 c 10.83535,-7.71545 8.80558,-27.81933 -3.32029,-32.88584 -17.42961,-7.28256 -33.2275,13.33018 -22.14493,28.89421 4.88827,6.86494 18.44562,8.99003 25.46522,3.99163 z m -461.50535,15.60382 c -18.53634,-5.3348 -21.50131,-28.39481 -4.76796,-37.08264 5.36419,-2.78505 19.69201,-3.54532 27.45388,-1.45678 l 5.32967,1.43409 0.53421,-1.39214 c 3.2827,-8.55458 -14.41645,-14.12305 -27.07066,-8.51691 -6.43352,2.85022 -6.20226,2.92427 -9.17247,-2.93716 l -2.58328,-5.09785 1.68263,-1.85929 c 11.00478,-12.16014 45.17617,-7.32186 52.01408,7.3646 l 2.41662,5.19039 0.01,21.63337 0.01,21.63337 -2.25,0.60298 c -6.92958,1.85706 -13.11843,0.51178 -14.47141,-3.14566 l -0.82104,-2.21949 -3.47877,2.33495 c -6.78917,4.55688 -16.45817,5.92505 -24.83503,3.51417 z m 21.06077,-13.89371 c 4.19517,-1.16514 8.02989,-5.36733 7.58995,-8.31727 -0.94426,-6.33157 -24.85377,-6.23892 -26.44536,0.10248 -1.85937,7.40833 7.33546,11.41427 18.85541,8.21479 z m 56.00044,13.20387 c -39.34308,-14.0208 -21.1534,-69.9846 20.21006,-62.17988 14.60106,2.75502 18.37582,7.0334 12.42845,14.08663 -4.6447,5.50833 -5.73352,5.78952 -11.34347,2.9294 -11.56486,-5.8961 -24.5,1.67136 -24.5,14.33327 0,13.877 12.38174,20.75968 25.45073,14.14737 l 5.46635,-2.76572 4.52492,4.89254 c 6.04736,6.53867 5.71635,8.03294 -2.73095,12.32825 l -6.78896,3.45207 -8.71104,0.33154 c -6.64743,0.253 -9.96542,-0.11549 -14.00609,-1.55547 z m -203.454957,-0.24394 -1.75,-1.01929 v -41.25031 c 0,-30.75024 0.305455,-41.55576 1.2,-42.45031 1.688867,-1.68886 41.193307,-1.60001 49.354087,0.11101 19.83554,4.15879 28.19913,23.93578 15.49488,36.64002 l -3.84553,3.84554 3.61616,2.35172 c 18.35045,11.93396 8.83072,37.90303 -15.34571,41.86191 -7.94691,1.3013 -46.457192,1.22993 -48.723887,-0.0903 z m 45.249997,-17.00532 c 5.63908,-1.29891 9,-4.34414 9,-8.15464 0,-8.05867 -3.91336,-9.75995 -22.450337,-9.75995 h -14.54966 v 8.83334 c 0,4.85833 0.3,9.13333 0.666667,9.5 1.054073,1.05407 22.356,0.72772 27.33333,-0.41875 z m 1.38536,-36.0443 c 13.30635,-6.06278 2.84935,-16.04043 -16.385357,-15.63425 l -12.5,0.26396 -0.290442,8.25 -0.290442,8.25 h 13.493389 c 7.898672,0 14.521442,-0.46841 15.972852,-1.12971 z m 38.29284,52.87971 -1.70407,-1.25 0.26294,-42.5 0.26293,-42.5 h 8.5 8.5 l 0.26294,42.5 0.26293,42.5 -1.70406,1.25 c -0.93724,0.6875 -4.23205,1.25 -7.32181,1.25 -3.08975,0 -6.38457,-0.5625 -7.3218,-1.25 z m 166.56093,0.41895 c -0.98922,-0.62797 -1.20467,-10.05079 -1,-43.73469 l 0.26087,-42.93426 7.3425,-0.29567 c 10.72459,-0.43187 10.1575,-1.85094 10.1575,25.41812 0,12.85765 0.26876,23.37755 0.59724,23.37755 0.66715,0 6.23173,-6.10274 14.81703,-16.25 l 5.71098,-6.75 h 10.0107 c 12.4525,0 12.56274,-0.73066 -2.41105,15.98124 l -11.7751,13.14193 4.7751,5.31407 c 2.62631,2.92274 8.7126,9.58466 13.5251,14.80426 11.53625,12.51214 11.48718,12.7585 -2.54136,12.7585 h -8.12778 l -7.54043,-8.22221 c -4.14723,-4.52222 -9.66822,-10.48472 -12.26885,-13.25 l -4.72843,-5.02779 -0.0216,11.67858 c -0.0263,14.22791 -0.40512,14.82826 -9.34301,14.80611 -3.39821,-0.008 -6.74596,-0.3755 -7.43944,-0.81574 z m 88.70586,-2.44732 c -7.0574,-2.15135 -16.94499,-7.0547 -16.94499,-8.40318 0,-0.50354 5.65843,-10.16416 6.52557,-11.14109 0.15751,-0.17745 2.6912,1.2545 5.63041,3.18211 20.27259,13.29532 49.87387,5.13544 41.3271,-11.3922 -2.22529,-4.30323 -6.28546,-5.91744 -19.07576,-7.584 -24.44539,-3.1852 -32.40732,-9.01581 -32.40732,-23.73223 0,-20.7438 29.62477,-31.27767 55.03034,-19.56749 9.4531,4.35722 9.6481,4.71743 5.46232,10.09006 l -3.49401,4.48473 -5.85185,-2.90045 c -17.11557,-8.48327 -37.1468,-4.59496 -37.1468,7.21065 0,7.65052 3.96053,9.77267 22.18347,11.88649 44.92382,5.21106 43.03986,48.14448 -2.18347,49.75907 l -11.5,0.41058 z m 87.78948,1.25414 c -26.0043,-6.56727 -30.74844,-43.98349 -7.05216,-55.6191 l 5.81769,-2.85667 h 10.52163 10.52162 l 4.90167,2.51988 c 6.14075,3.15687 6.26078,3.60823 2.22764,8.37664 l -3.29569,3.89652 -2.43843,-1.59056 c -12.86685,-8.39293 -29.89451,0.89001 -29.89451,16.29752 0,15.15433 15.22748,23.49808 29.20867,16.00461 l 3.58824,-1.92318 3.72132,4.11906 3.72133,4.11906 -1.89174,1.45284 c -6.45091,4.95425 -20.72628,7.45887 -29.65728,5.20338 z m 62.21609,-0.27423 c -21.70141,-6.1559 -28.86611,-34.63214 -12.76469,-50.73355 14.88996,-14.88996 45.91785,-8.39995 52.09639,10.89685 7.9188,24.73193 -14.06958,47.00263 -39.3317,39.8367 z m 18.91684,-12.13296 c 10.07426,-5.20961 11.8607,-22.07577 3.25025,-30.68622 -11.7892,-11.7892 -30.05266,-3.65909 -30.1012,13.39976 -0.0439,15.44222 13.5248,24.17768 26.85095,17.28646 z m 134.6326,12.75933 c -27.55586,-6.06351 -32.85266,-43.20754 -8,-56.10034 20.26243,-10.51153 43.45947,1.7683 43.49023,23.02243 l 0.01,6.75 h -21.30887 c -15.73268,0 -21.76685,0.33489 -23.05899,1.27973 l -1.75013,1.27972 1.12261,2.97028 c 3.74164,9.89982 18.91622,14.07565 30.5986,8.42031 l 4.54307,-2.19926 2.88621,3.37461 c 3.71509,4.34374 3.69791,4.46134 -1.002,6.85905 -7.9315,4.04635 -20.13267,5.97132 -27.5305,4.34347 z m 23.29201,-36.86769 c 0.35094,-2.45152 -3.2583,-8.01064 -7.00054,-10.78256 -8.69355,-6.4394 -25.77017,0.12013 -25.78773,9.90568 -0.006,3.35774 0.63554,3.47861 16.93735,3.19109 l 15.55891,-0.27443 z M 379.5559,649.18823 c -24.5768,-12.35644 -47.274,-27.75548 -67.13058,-45.54511 -11.55219,-10.34968 -11.37284,-9.40146 -3.42142,-18.08822 l 6.32858,-6.91384 11.42142,10.0214 c 21.45978,18.82927 55.07877,41.14145 66.19327,43.93101 5.58267,1.40116 39.03768,-18.35376 60.80118,-35.90261 59.288,-47.8065 100.08214,-130.44274 105.58478,-213.88193 0.78795,-11.94811 0.73541,-11.89958 12.49148,-11.53641 l 9.35071,0.28885 -0.25687,7 c -4.15868,113.32918 -70.14805,219.57465 -166.77668,268.517 -19.4075,9.82989 -19.24996,9.82028 -34.58587,2.10986 z M 227.22781,628.46415 c -29.7236,-9.48318 -32.62104,-40.96103 -5.92807,-64.40278 5.94968,-5.225 20.31533,-18.05 31.92368,-28.5 21.69512,-19.53025 35.77488,-31.84606 50.2019,-43.91244 9.46662,-7.91764 9.22691,-7.15952 5.12217,-16.19924 -50.27871,-110.72682 94.15062,-208.75993 179.62783,-121.92451 85.0121,86.36291 -16.91945,227.402 -126.43998,174.95055 l -11.43999,-5.47882 -1.64843,1.78223 c -0.90663,0.98023 -11.27161,12.58223 -23.03328,25.78223 -72.92914,81.84757 -76.68935,84.82495 -98.38583,77.90278 z m 38.09663,-74.44391 c 10.91405,-7.5382 13.01043,-8.77085 16.60415,-9.76313 10.66023,-2.94343 30.74673,-21.83903 30.74673,-28.92381 0,-5.96907 -3.07478,-4.90886 -14.84492,5.11865 -4.58971,3.91019 -10.32169,8.74989 -12.73773,10.75491 -7.17687,5.95593 -27.41735,25.19082 -27.41735,26.0552 0,1.54643 1.85447,0.76048 7.64912,-3.24182 z M 424.4805,513.96631 c 41.5005,-6.46809 72.08365,-45.16811 69.86306,-88.40494 -3.79055,-73.80551 -91.28336,-108.36522 -144.53045,-57.08962 -60.84556,58.59275 -9.51453,158.61481 74.66739,145.49456 z m -33.30518,-12.8776 c -56.07455,-14.92014 -73.97403,-84.48742 -31.88269,-123.91375 5.42087,-5.07765 16.38269,-12.27485 16.38269,-10.75638 0,0.21499 -1.17729,2.4973 -2.61621,5.07181 -3.46114,6.19264 -3.05001,13.3823 1.29067,22.57098 1.68881,3.575 4.07564,8.84459 5.30407,11.71018 2.25323,5.25621 10.82055,13.28982 14.17272,13.28982 0.80657,0 2.34,0.66069 3.40762,1.4682 10.49526,7.93822 46.03234,-1.85012 54.5535,-15.02621 5.01452,-7.75385 4.82334,-7.72958 9.93626,-1.26126 5.50677,6.96659 7.60239,11.3125 10.2325,21.22018 2.43649,9.17832 3.62929,10.65223 4.93586,6.09909 2.94136,-10.25008 -3.3009,-32.2606 -12.96365,-45.71044 -2.83802,-3.95033 -3.17514,-4.81808 -1.52971,-3.93746 9.43928,5.05175 19.74634,31.17036 19.5923,49.6479 l -0.0917,11 -3.01607,9.28018 c -12.14278,37.36215 -50.79978,59.06763 -87.70816,49.24716 z m -142.8654,18.78475 c -20.97147,-32.47957 -41.05841,-117.45547 -41.92998,-177.38085 -0.27484,-18.89698 0.58013,-20.36212 12.79538,-21.92707 38.966,-4.99212 103.00677,-25.51503 147.06893,-47.13065 20.61088,-10.1111 18.03352,-10.05295 37.99874,-0.85725 26.14478,12.04191 56.40255,22.94577 80.43233,28.98504 12.77333,3.21025 13.51706,3.80554 9.25,7.40377 l -3.25,2.74058 -0.0153,4.42717 c -0.0235,6.80519 -0.75868,7.41615 -7.12205,5.91898 -29.62847,-6.97097 -67.73592,-20.34897 -90.22559,-31.67458 l -6.9316,-3.4907 -16.60272,7.9923 c -41.09495,19.78251 -79.32629,32.60078 -127.10273,42.61524 l -15.5,3.24897 0.30039,8.90848 c 1.7113,50.75182 16.46798,114.37341 35.05375,151.12997 4.19343,8.29322 4.19226,8.29772 -3.90339,14.96928 -8.53267,7.03171 -8.45659,7.00132 -10.31615,4.12132 z m 330.57647,-191.56209 0.28893,-8.75 h 8.5 8.5 l 0.28894,8.75 0.28893,8.75 h -9.07787 -9.07786 z m -59.71107,3.83684 -8,-0.58684 -0.29381,-7.25 -0.29381,-7.25 7.79381,0.11832 c 4.2866,0.0651 9.14381,0.40699 10.79381,0.75982 l 3,0.64151 v 6.99018 6.99017 l -2.5,0.0868 c -1.375,0.0478 -6.1,-0.17724 -10.5,-0.5 z m 1.6579,-24.08684 c 0,-1.375 0.22697,-1.9375 0.50438,-1.25 0.27742,0.6875 0.27742,1.8125 0,2.5 -0.27741,0.6875 -0.50438,0.125 -0.50438,-1.25 z m 46.75877,-3.72823 -4.58333,-0.36773 -0.0736,-6.20202 c -0.0405,-3.41111 0.13982,-6.98952 0.40072,-7.95202 l 0.47437,-1.75 h 7.93261 7.93261 v 8.5 8.5 l -3.75,-0.18024 c -2.0625,-0.0991 -5.8125,-0.34573 -8.33333,-0.54799 z m 29.2944,-26.02177 0.28893,-8.75 7.75,-0.29206 7.75,-0.29206 v 7.46027 c 0,4.10316 0.27315,8.17208 0.60699,9.04207 l 0.60699,1.58178 h -8.64592 -8.64592 z"
         id="path30611" />
      <path
         style="fill:#378ce6"
         d="m 607.67532,790.51568 v -41.54569 l 6.75,0.29569 6.75,0.29569 0.31336,3.25 c 0.39002,4.04503 0.38549,4.04534 6.94427,-0.47187 l 5.40401,-3.72188 6.82787,-0.38581 c 18.55556,-1.04848 30.06643,10.36435 30.12809,29.87148 0.0748,23.65624 -25.91558,38.47854 -43.41802,24.76131 -6.28032,-4.92209 -6.69958,-4.06693 -6.69958,13.66539 v 15.53138 h -6.5 -6.5 z m 42.6491,2.79556 c 10.83535,-7.71545 8.80558,-27.81933 -3.32029,-32.88584 -17.42961,-7.28256 -33.2275,13.33018 -22.14493,28.89421 4.88827,6.86494 18.44562,8.99003 25.46522,3.99163 z m -462.09127,14.25801 c -31.20727,-11.11708 -8.92875,-45.52837 23.28283,-35.96255 7.33801,2.17915 9.10542,0.11866 5.64242,-6.57806 -3.39402,-6.5633 -16.86281,-8.6548 -26.84176,-4.16811 -5.64027,2.53595 -5.97975,2.41794 -8.76828,-3.04803 l -2.09839,-4.11318 1.80286,-1.31828 c 11.54745,-8.4437 36.8309,-7.64157 45.68945,1.44951 6.27085,6.43547 6.73304,8.63716 6.73304,32.07371 v 20.90711 l -3.125,0.625 c -7.719,1.5438 -11.875,0.29263 -11.875,-3.575 0,-2.41876 -1.22065,-2.2686 -5.57408,0.68572 -6.76358,4.58989 -16.98147,5.83164 -24.86809,3.02216 z m 22.80639,-11.8867 c 13.46147,-5.62456 8.97218,-14.12118 -7.4611,-14.12118 h -9.68803 l -2.10754,1.90499 c -8.63883,7.80855 6.6272,17.49313 19.25667,12.21619 z m 54.96824,11.58583 c -37.9353,-13.5358 -20.7203,-67.0193 19.39398,-60.25315 14.34747,2.42002 18.24383,6.69606 11.83382,12.987 l -4.43974,4.35728 -4.99564,-2.14907 c -20.7485,-8.92576 -36.70981,16.87256 -18.73976,30.28915 4.23755,3.16378 15.86545,2.95289 20.52781,-0.37232 l 3.41292,-2.43411 4.31651,4.93411 c 5.57687,6.3748 5.5431,6.53317 -2.2346,10.48093 l -6.59224,3.34604 -8.65776,0.32899 c -6.53107,0.24818 -9.92711,-0.12392 -13.8253,-1.51485 z M 62.868154,806.79372 c -0.919944,-1.10846 -1.151948,-11.4055 -0.954161,-42.34846 l 0.26133,-40.88389 20.5,-0.29003 c 21.611957,-0.30576 30.830767,0.63203 36.897597,3.75343 13.23083,6.80728 15.97818,24.23179 5.2447,33.26341 -4.01214,3.376 -3.94723,3.74698 1.20168,6.8679 14.40816,8.73325 10.27418,31.21493 -6.98275,37.97408 l -5.86123,2.2957 -24.545836,0.41622 -24.545839,0.41622 z m 44.921296,-14.85024 c 9.83084,-2.10834 12.97858,-9.3864 6.97027,-16.11633 l -2.91559,-3.26578 -16.584405,-0.31729 -16.584402,-0.3173 v 9.90063 c 0,5.44535 0.3,10.20063 0.666667,10.5673 1.09769,1.09769 22.83264,0.75293 28.44746,-0.45123 z m 3.76444,-37.26939 c 9.91924,-8.9902 0.50593,-16.83602 -19.667262,-16.3923 l -12.711305,0.27958 -0.288464,9.32096 -0.288465,9.32095 15.436586,-0.32095 15.43659,-0.32096 z m 36.36031,52.55608 c -0.98893,-0.62779 -1.20476,-9.85101 -1,-42.73468 l 0.26112,-41.93412 h 7.5 7.5 l 0.26112,41.93412 c 0.29275,47.01297 0.91273,43.53526 -7.76112,43.53526 -3.025,0 -6.0675,-0.36026 -6.76112,-0.80058 z m 166.42779,0.16454 c -0.36667,-0.36667 -0.66667,-19.71667 -0.66667,-43 v -42.33334 h 7.39301 c 9.26498,0 8.60699,-2.03212 8.60699,26.58179 0,12.88002 0.39609,23.41821 0.8802,23.41821 0.48411,0 5.02162,-4.73036 10.08336,-10.51193 5.06174,-5.78156 9.87279,-11.18156 10.69123,-12 1.4617,-1.46169 19.34521,-2.30938 19.34521,-0.91697 0,0.31411 -5.39882,6.50161 -11.99738,13.75 -14.42833,15.84926 -14.64957,11.86796 1.62827,29.30091 15.33653,16.42485 15.31903,16.33835 3.31024,16.36268 -8.89484,0.018 -7.71353,0.80622 -20.95945,-13.98469 -13.9031,-15.52473 -12.98168,-15.47152 -12.98168,-0.74969 0,8.27199 -0.39622,12.74592 -1.2,13.54969 -1.25681,1.25682 -12.96792,1.69875 -14.13333,0.53334 z m 88.27832,-1.61171 c -7.0574,-2.15135 -16.94499,-7.0547 -16.94499,-8.40318 0,-0.50354 5.65843,-10.16416 6.52557,-11.14109 0.15751,-0.17745 2.6912,1.2545 5.63041,3.18211 20.27259,13.29532 49.87387,5.13544 41.3271,-11.3922 -2.22529,-4.30323 -6.28546,-5.91744 -19.07576,-7.584 -24.44539,-3.1852 -32.40732,-9.01581 -32.40732,-23.73223 0,-20.7438 29.62477,-31.27767 55.03034,-19.56749 9.4531,4.35722 9.6481,4.71743 5.46232,10.09006 l -3.49401,4.48473 -5.85185,-2.90045 c -17.11557,-8.48327 -37.1468,-4.59496 -37.1468,7.21065 0,7.65052 3.96053,9.77267 22.18347,11.88649 44.92382,5.21106 43.03986,48.14448 -2.18347,49.75907 l -11.5,0.41058 z m 87.78948,1.25414 c -26.0043,-6.56727 -30.74844,-43.98349 -7.05216,-55.6191 l 5.81769,-2.85667 h 10.52163 10.52162 l 4.90167,2.51988 c 6.14075,3.15687 6.26078,3.60823 2.22764,8.37664 l -3.29569,3.89652 -2.43843,-1.59056 c -12.86685,-8.39293 -29.89451,0.89001 -29.89451,16.29752 0,15.15433 15.22748,23.49808 29.20867,16.00461 l 3.58824,-1.92318 3.72132,4.11906 3.72133,4.11906 -1.89174,1.45284 c -6.45091,4.95425 -20.72628,7.45887 -29.65728,5.20338 z m 62.21609,-0.27423 c -21.70141,-6.1559 -28.86611,-34.63214 -12.76469,-50.73355 14.88996,-14.88996 45.91785,-8.39995 52.09639,10.89685 7.9188,24.73193 -14.06958,47.00263 -39.3317,39.8367 z m 18.91684,-12.13296 c 10.07426,-5.20961 11.8607,-22.07577 3.25025,-30.68622 -11.7892,-11.7892 -30.05266,-3.65909 -30.1012,13.39976 -0.0439,15.44222 13.5248,24.17768 26.85095,17.28646 z m 134.6326,12.75933 c -27.55586,-6.06351 -32.85266,-43.20754 -8,-56.10034 20.26243,-10.51153 43.45947,1.7683 43.49023,23.02243 l 0.01,6.75 h -21.30887 c -15.73268,0 -21.76685,0.33489 -23.05899,1.27973 l -1.75013,1.27972 1.12261,2.97028 c 3.74164,9.89982 18.91622,14.07565 30.5986,8.42031 l 4.54307,-2.19926 2.88621,3.37461 c 3.71509,4.34374 3.69791,4.46134 -1.002,6.85905 -7.9315,4.04635 -20.13267,5.97132 -27.5305,4.34347 z m 23.29201,-36.86769 c 0.35094,-2.45152 -3.2583,-8.01064 -7.00054,-10.78256 -8.69355,-6.4394 -25.77017,0.12013 -25.78773,9.90568 -0.006,3.35774 0.63554,3.47861 16.93735,3.19109 l 15.55891,-0.27443 z M 380.06197,648.20197 c -25.13624,-12.39068 -46.66375,-27.0561 -68.38665,-46.58782 -9.38169,-8.43537 -9.21164,-7.33692 -2.32758,-15.03498 7.17646,-8.02506 5.50435,-8.28144 18.1755,2.78678 17.67343,15.43771 32.4238,25.84016 51.70996,36.46757 16.35232,9.01075 13.4858,9.46254 43.44212,-6.84688 74.67849,-40.65794 130.65947,-135.76453 137.50067,-233.60113 0.33936,-4.85327 0.82831,-9.85335 1.08655,-11.11129 l 0.46954,-2.28715 9.22162,0.28715 9.22162,0.28715 -0.29837,7 c -4.96863,116.56696 -75.42363,225.67861 -175.07647,271.13592 -9.75765,4.45102 -10.87563,4.33825 -24.73851,-2.49532 z M 228.17532,627.66255 c -26.02158,-8.22954 -32.38184,-37.99756 -12.22039,-57.19529 16.03664,-15.27009 72.94737,-65.61999 88.41906,-78.22586 9.51948,-7.75617 9.36311,-7.14559 4.73631,-18.49424 -46.10674,-113.09102 96.15539,-206.48728 179.67149,-117.95581 82.90741,87.88623 -20.85881,224.78055 -129.33648,170.62808 -4.80151,-2.39693 -8.92241,-4.35806 -9.15754,-4.35806 -0.23514,0 -11.59027,12.4875 -25.23362,27.75 -42.55941,47.61022 -65.08351,71.71574 -69.14251,73.99703 -8.39575,4.71868 -19.93335,6.3219 -27.73632,3.85415 z m 37.14912,-73.64231 c 10.91405,-7.5382 13.01043,-8.77085 16.60415,-9.76313 10.66023,-2.94343 30.74673,-21.83903 30.74673,-28.92381 0,-5.96907 -3.07478,-4.90886 -14.84492,5.11865 -4.58971,3.91019 -10.32169,8.74989 -12.73773,10.75491 -7.17687,5.95593 -27.41735,25.19082 -27.41735,26.0552 0,1.54643 1.85447,0.76048 7.64912,-3.24182 z M 427.39217,514.49281 C 527.88722,493.83805 511.93622,344.24376 409.17532,343.64868 l -14,-0.0811 -7.89503,2.28361 c -107.34955,31.05051 -69.27562,191.12402 40.11188,168.64159 z m -36.21685,-13.4041 c -56.07455,-14.92014 -73.97403,-84.48742 -31.88269,-123.91375 5.42087,-5.07765 16.38269,-12.27485 16.38269,-10.75638 0,0.21499 -1.17729,2.4973 -2.61621,5.07181 -3.46114,6.19264 -3.05001,13.3823 1.29067,22.57098 1.68881,3.575 4.07564,8.84459 5.30407,11.71018 2.25323,5.25621 10.82055,13.28982 14.17272,13.28982 0.80657,0 2.34,0.66069 3.40762,1.4682 10.49526,7.93822 46.03234,-1.85012 54.5535,-15.02621 5.01452,-7.75385 4.82334,-7.72958 9.93626,-1.26126 5.50677,6.96659 7.60239,11.3125 10.2325,21.22018 2.43649,9.17832 3.62929,10.65223 4.93586,6.09909 2.94136,-10.25008 -3.3009,-32.2606 -12.96365,-45.71044 -2.83802,-3.95033 -3.17514,-4.81808 -1.52971,-3.93746 9.43928,5.05175 19.74634,31.17036 19.5923,49.6479 l -0.0917,11 -3.01607,9.28018 C 466.7407,489.2037 428.0837,510.90918 391.17532,501.08871 Z M 245.0581,511.31137 C 222.0088,461.93865 208.28248,400.17092 207.39839,341.84466 l -0.22307,-14.71671 2.04978,-2.05528 c 1.48959,-1.4936 5.04238,-2.57262 13,-3.94825 50.03226,-8.64903 101.98942,-25.56495 147.31877,-47.96322 17.01091,-8.40548 16.24103,-8.33727 28.20403,-2.49895 25.3298,12.36172 61.3546,25.6263 86.7059,31.92571 11.33919,2.81762 12.7569,3.87057 8.25746,6.13298 -3.3075,1.66308 -4.12782,3.36601 -3.53594,7.34043 0.95957,6.44342 0.24583,6.56166 -15.11248,2.50338 -27.43428,-7.24922 -50.8101,-15.5101 -74.04351,-26.16656 l -14.156,-6.49292 -16.344,7.9831 c -40.46363,19.76413 -97.55117,38.30228 -137.53644,44.66248 -6.51664,1.03657 -6.6293,1.41963 -5.35736,18.21553 4.25441,56.17886 15.19808,101.70368 34.56674,143.79499 l 3.68127,8 -6.84911,6.24126 c -8.54515,7.78678 -7.57993,8.04667 -12.96633,-3.49126 z m 333.82829,-183 0.28893,-8.75 h 8.5 8.5 l 0.28894,8.75 0.28893,8.75 h -9.07787 -9.07786 z m -59.21107,2.83656 -7.5,-0.58656 -0.29771,-6.25 -0.29772,-6.25 h 5.40814 c 2.97449,0 7.51577,0.28889 10.09175,0.64196 l 4.68361,0.64196 -0.29403,6.10804 -0.29404,6.10804 -2,0.0866 c -1.1,0.0476 -5.375,-0.17739 -9.5,-0.5 z m 1.1579,-23.08656 c 0,-1.375 0.22697,-1.9375 0.50438,-1.25 0.27742,0.6875 0.27742,1.8125 0,2.5 -0.27741,0.6875 -0.50438,0.125 -0.50438,-1.25 z m 46.75877,-3.72823 -4.58333,-0.36773 -0.0736,-6.20202 c -0.0405,-3.41111 0.13982,-6.98952 0.40072,-7.95202 l 0.47437,-1.75 h 7.93261 7.93261 v 8.5 8.5 l -3.75,-0.18024 c -2.0625,-0.0991 -5.8125,-0.34573 -8.33333,-0.54799 z m 29.2944,-26.02177 0.28893,-8.75 7.75,-0.29206 7.75,-0.29206 v 7.46027 c 0,4.10316 0.27315,8.17208 0.60699,9.04207 l 0.60699,1.58178 h -8.64592 -8.64592 z"
         id="path30610" />
      <path
         style="fill:#3575cf"
         d="m 188.23315,807.56925 c -31.20727,-11.11708 -8.92875,-45.52837 23.28283,-35.96255 7.33801,2.17915 9.10542,0.11866 5.64242,-6.57806 -3.39402,-6.5633 -16.86281,-8.6548 -26.84176,-4.16811 -5.64027,2.53595 -5.97975,2.41794 -8.76828,-3.04803 l -2.09839,-4.11318 1.80286,-1.31828 c 11.54745,-8.4437 36.8309,-7.64157 45.68945,1.44951 6.27085,6.43547 6.73304,8.63716 6.73304,32.07371 v 20.90711 l -3.125,0.625 c -7.719,1.5438 -11.875,0.29263 -11.875,-3.575 0,-2.41876 -1.22065,-2.2686 -5.57408,0.68572 -6.76358,4.58989 -16.98147,5.83164 -24.86809,3.02216 z m 22.80639,-11.8867 c 13.46147,-5.62456 8.97218,-14.12118 -7.4611,-14.12118 h -9.68803 l -2.10754,1.90499 c -8.63883,7.80855 6.6272,17.49313 19.25667,12.21619 z m 54.96824,11.58583 c -37.9353,-13.5358 -20.7203,-67.0193 19.39398,-60.25315 14.34747,2.42002 18.24383,6.69606 11.83382,12.987 l -4.43974,4.35728 -4.99564,-2.14907 c -20.7485,-8.92576 -36.70981,16.87256 -18.73976,30.28915 4.23755,3.16378 15.86545,2.95289 20.52781,-0.37232 l 3.41292,-2.43411 4.31651,4.93411 c 5.57687,6.3748 5.5431,6.53317 -2.2346,10.48093 l -6.59224,3.34604 -8.65776,0.32899 c -6.53107,0.24818 -9.92711,-0.12392 -13.8253,-1.51485 z M 62.868154,806.79372 c -0.919944,-1.10846 -1.151948,-11.4055 -0.954161,-42.34846 l 0.26133,-40.88389 20.5,-0.29003 c 21.611957,-0.30576 30.830767,0.63203 36.897597,3.75343 13.23083,6.80728 15.97818,24.23179 5.2447,33.26341 -4.01214,3.376 -3.94723,3.74698 1.20168,6.8679 14.40816,8.73325 10.27418,31.21493 -6.98275,37.97408 l -5.86123,2.2957 -24.545836,0.41622 -24.545839,0.41622 z m 44.921296,-14.85024 c 9.83084,-2.10834 12.97858,-9.3864 6.97027,-16.11633 l -2.91559,-3.26578 -16.584405,-0.31729 -16.584402,-0.3173 v 9.90063 c 0,5.44535 0.3,10.20063 0.666667,10.5673 1.09769,1.09769 22.83264,0.75293 28.44746,-0.45123 z m 3.76444,-37.26939 c 9.91924,-8.9902 0.50593,-16.83602 -19.667262,-16.3923 l -12.711305,0.27958 -0.288464,9.32096 -0.288465,9.32095 15.436586,-0.32095 15.43659,-0.32096 z m 36.36031,52.55608 c -0.98893,-0.62779 -1.20476,-9.85101 -1,-42.73468 l 0.26112,-41.93412 h 7.5 7.5 l 0.26112,41.93412 c 0.29275,47.01297 0.91273,43.53526 -7.76112,43.53526 -3.025,0 -6.0675,-0.36026 -6.76112,-0.80058 z m 166.42779,0.16454 c -0.36667,-0.36667 -0.66667,-19.71667 -0.66667,-43 v -42.33334 h 7.39301 c 9.26498,0 8.60699,-2.03212 8.60699,26.58179 0,12.88002 0.39609,23.41821 0.8802,23.41821 0.48411,0 5.02162,-4.73036 10.08336,-10.51193 5.06174,-5.78156 9.87279,-11.18156 10.69123,-12 1.4617,-1.46169 19.34521,-2.30938 19.34521,-0.91697 0,0.31411 -5.39882,6.50161 -11.99738,13.75 -14.42833,15.84926 -14.64957,11.86796 1.62827,29.30091 15.33653,16.42485 15.31903,16.33835 3.31024,16.36268 -8.89484,0.018 -7.71353,0.80622 -20.95945,-13.98469 -13.9031,-15.52473 -12.98168,-15.47152 -12.98168,-0.74969 0,8.27199 -0.39622,12.74592 -1.2,13.54969 -1.25681,1.25682 -12.96792,1.69875 -14.13333,0.53334 z m 94.83333,-1.33334 -3,-0.76337 h 5 c 2.75,0 6.35,0.34352 8,0.76337 l 3,0.76338 h -5 c -2.75,0 -6.35,-0.34352 -8,-0.76338 z m 80.83334,-0.66666 c 0.36666,-0.36667 0.96666,-0.36667 1.33333,0 0.36667,0.36666 0.0667,0.66666 -0.66667,0.66666 -0.73333,0 -1.03333,-0.3 -0.66666,-0.66666 z m -90.08334,-1.45212 c -1.7875,-0.51612 -3.25,-1.35212 -3.25,-1.85779 0,-1.08086 5.73055,0.73157 6.56086,2.07504 0.30645,0.49584 0.41812,0.86095 0.24816,0.81135 -0.16996,-0.0496 -1.77152,-0.51247 -3.55902,-1.0286 z m 40.13964,-27.30821 c -0.73026,-1.90304 -7.8375,-5.15317 -13.24424,-6.05655 l -4.35459,-0.72759 4.12712,-4.20524 c 2.26992,-2.31288 3.77949,-4.57507 3.3546,-5.02709 -1.08171,-1.15078 6.78025,0.34972 9.29159,1.77336 6.52298,3.69776 9.63859,6.10254 8.42883,6.50579 -2.43795,0.81265 -7.13607,6.34895 -6.59166,7.76767 0.29477,0.76815 0.31094,1.39664 0.0359,1.39664 -0.275,0 -0.74641,-0.64214 -1.04759,-1.42699 z M 380.06197,648.20197 c -25.13624,-12.39068 -46.66375,-27.0561 -68.38665,-46.58782 -9.38169,-8.43537 -9.21164,-7.33692 -2.32758,-15.03498 7.17646,-8.02506 5.50435,-8.28144 18.1755,2.78678 17.67343,15.43771 32.4238,25.84016 51.70996,36.46757 16.35232,9.01075 13.4858,9.46254 43.44212,-6.84688 74.67849,-40.65794 130.65947,-135.76453 137.50067,-233.60113 0.33936,-4.85327 0.82831,-9.85335 1.08655,-11.11129 l 0.46954,-2.28715 9.22162,0.28715 9.22162,0.28715 -0.29837,7 c -4.96863,116.56696 -75.42363,225.67861 -175.07647,271.13592 -9.75765,4.45102 -10.87563,4.33825 -24.73851,-2.49532 z M 228.17532,627.66255 c -26.02158,-8.22954 -32.38184,-37.99756 -12.22039,-57.19529 16.03664,-15.27009 72.94737,-65.61999 88.41906,-78.22586 9.51948,-7.75617 9.36311,-7.14559 4.73631,-18.49424 -46.10674,-113.09102 96.15539,-206.48728 179.67149,-117.95581 82.90741,87.88623 -20.85881,224.78055 -129.33648,170.62808 -4.80151,-2.39693 -8.92241,-4.35806 -9.15754,-4.35806 -0.23514,0 -11.59027,12.4875 -25.23362,27.75 -42.55941,47.61022 -65.08351,71.71574 -69.14251,73.99703 -8.39575,4.71868 -19.93335,6.3219 -27.73632,3.85415 z m 15.54612,-30.28211 c 7.17861,-4.94972 24.63648,-21.05895 47.34693,-43.68932 11.51926,-11.47865 23.23075,-22.34171 26.02553,-24.14016 5.52095,-3.55273 8.61469,-6.6043 10.61527,-10.47059 0.70608,-1.36455 2.37304,-3.33781 3.70437,-4.38503 l 2.42059,-1.90404 -4.79181,-4.86496 c -5.47828,-5.56192 -6.05224,-5.69486 -11.13687,-2.57954 -2.05157,1.25698 -4.85513,2.77957 -6.23013,3.38354 -2.87396,1.26239 -21.76028,17.43301 -43.45144,37.20349 -8.22329,7.49515 -21.43549,19.42904 -29.36044,26.51976 -14.86237,13.29786 -17.18812,16.42461 -17.18812,23.10789 0,6.61492 13.47774,7.72693 22.04612,1.81896 z M 427.39217,514.49281 C 527.88722,493.83805 511.93622,344.24376 409.17532,343.64868 l -14,-0.0811 -7.89503,2.28361 c -107.34955,31.05051 -69.27562,191.12402 40.11188,168.64159 z m -32.71885,-12.85077 c -33.66404,-7.05681 -58.44256,-37.84546 -57.87968,-71.91863 0.27722,-16.78121 3.0106,-17.70808 7.43313,-2.52052 3.82854,13.14771 9.95557,24.1615 17.99563,32.34844 40.04298,40.77453 116.45292,20.72581 116.45292,-30.55533 0,-3.70736 1.59165,-3.83502 2.30194,-0.18463 4.96332,25.50805 -18.76696,59.76896 -48.42559,69.91511 l -10.37635,3.54972 -10.5,0.36441 c -6.44611,0.22372 -13.01032,-0.16181 -17.002,-0.99857 z M 245.0581,511.31137 C 222.0088,461.93865 208.28248,400.17092 207.39839,341.84466 l -0.22307,-14.71671 2.04978,-2.05528 c 1.48959,-1.4936 5.04238,-2.57262 13,-3.94825 50.03226,-8.64903 101.98942,-25.56495 147.31877,-47.96322 17.01091,-8.40548 16.24103,-8.33727 28.20403,-2.49895 25.3298,12.36172 61.3546,25.6263 86.7059,31.92571 11.33919,2.81762 12.7569,3.87057 8.25746,6.13298 -3.3075,1.66308 -4.12782,3.36601 -3.53594,7.34043 0.95957,6.44342 0.24583,6.56166 -15.11248,2.50338 -27.43428,-7.24922 -50.8101,-15.5101 -74.04351,-26.16656 l -14.156,-6.49292 -16.344,7.9831 c -40.46363,19.76413 -97.55117,38.30228 -137.53644,44.66248 -6.51664,1.03657 -6.6293,1.41963 -5.35736,18.21553 4.25441,56.17886 15.19808,101.70368 34.56674,143.79499 l 3.68127,8 -6.84911,6.24126 c -8.54515,7.78678 -7.57993,8.04667 -12.96633,-3.49126 z m 274.61722,-180.16344 -7.5,-0.58656 -0.29771,-6.25 -0.29772,-6.25 h 5.40814 c 2.97449,0 7.51577,0.28889 10.09175,0.64196 l 4.68361,0.64196 -0.29403,6.10804 -0.29404,6.10804 -2,0.0866 c -1.1,0.0476 -5.375,-0.17739 -9.5,-0.5 z"
         id="path30609" />
      <path
         style="fill:#585f67"
         d="m 188.23315,807.56925 c -31.20727,-11.11708 -8.92875,-45.52837 23.28283,-35.96255 7.33801,2.17915 9.10542,0.11866 5.64242,-6.57806 -3.39402,-6.5633 -16.86281,-8.6548 -26.84176,-4.16811 -5.64027,2.53595 -5.97975,2.41794 -8.76828,-3.04803 l -2.09839,-4.11318 1.80286,-1.31828 c 11.54745,-8.4437 36.8309,-7.64157 45.68945,1.44951 6.27085,6.43547 6.73304,8.63716 6.73304,32.07371 v 20.90711 l -3.125,0.625 c -7.719,1.5438 -11.875,0.29263 -11.875,-3.575 0,-2.41876 -1.22065,-2.2686 -5.57408,0.68572 -6.76358,4.58989 -16.98147,5.83164 -24.86809,3.02216 z m 22.80639,-11.8867 c 13.46147,-5.62456 8.97218,-14.12118 -7.4611,-14.12118 h -9.68803 l -2.10754,1.90499 c -8.63883,7.80855 6.6272,17.49313 19.25667,12.21619 z m 54.96824,11.58583 c -37.9353,-13.5358 -20.7203,-67.0193 19.39398,-60.25315 14.34747,2.42002 18.24383,6.69606 11.83382,12.987 l -4.43974,4.35728 -4.99564,-2.14907 c -20.7485,-8.92576 -36.70981,16.87256 -18.73976,30.28915 4.23755,3.16378 15.86545,2.95289 20.52781,-0.37232 l 3.41292,-2.43411 4.31651,4.93411 c 5.57687,6.3748 5.5431,6.53317 -2.2346,10.48093 l -6.59224,3.34604 -8.65776,0.32899 c -6.53107,0.24818 -9.92711,-0.12392 -13.8253,-1.51485 z M 62.868154,806.79372 c -0.919944,-1.10846 -1.151948,-11.4055 -0.954161,-42.34846 l 0.26133,-40.88389 20.5,-0.29003 c 21.611957,-0.30576 30.830767,0.63203 36.897597,3.75343 13.23083,6.80728 15.97818,24.23179 5.2447,33.26341 -4.01214,3.376 -3.94723,3.74698 1.20168,6.8679 14.40816,8.73325 10.27418,31.21493 -6.98275,37.97408 l -5.86123,2.2957 -24.545836,0.41622 -24.545839,0.41622 z m 44.921296,-14.85024 c 9.83084,-2.10834 12.97858,-9.3864 6.97027,-16.11633 l -2.91559,-3.26578 -16.584405,-0.31729 -16.584402,-0.3173 v 9.90063 c 0,5.44535 0.3,10.20063 0.666667,10.5673 1.09769,1.09769 22.83264,0.75293 28.44746,-0.45123 z m 3.76444,-37.26939 c 9.91924,-8.9902 0.50593,-16.83602 -19.667262,-16.3923 l -12.711305,0.27958 -0.288464,9.32096 -0.288465,9.32095 15.436586,-0.32095 15.43659,-0.32096 z m 36.36031,52.55608 c -0.98893,-0.62779 -1.20476,-9.85101 -1,-42.73468 l 0.26112,-41.93412 h 7.5 7.5 l 0.26112,41.93412 c 0.29275,47.01297 0.91273,43.53526 -7.76112,43.53526 -3.025,0 -6.0675,-0.36026 -6.76112,-0.80058 z m 166.42779,0.16454 c -0.36667,-0.36667 -0.66667,-19.71667 -0.66667,-43 v -42.33334 h 7.39301 c 9.26498,0 8.60699,-2.03212 8.60699,26.58179 0,12.88002 0.39609,23.41821 0.8802,23.41821 0.48411,0 5.02162,-4.73036 10.08336,-10.51193 5.06174,-5.78156 9.87279,-11.18156 10.69123,-12 1.4617,-1.46169 19.34521,-2.30938 19.34521,-0.91697 0,0.31411 -5.39882,6.50161 -11.99738,13.75 -14.42833,15.84926 -14.64957,11.86796 1.62827,29.30091 15.33653,16.42485 15.31903,16.33835 3.31024,16.36268 -8.89484,0.018 -7.71353,0.80622 -20.95945,-13.98469 -13.9031,-15.52473 -12.98168,-15.47152 -12.98168,-0.74969 0,8.27199 -0.39622,12.74592 -1.2,13.54969 -1.25681,1.25682 -12.96792,1.69875 -14.13333,0.53334 z m 65.71998,-159.19274 c -25.01238,-12.32962 -44.66446,-25.64475 -67.11079,-45.47044 -10.91444,-9.64017 -10.69553,-8.52251 -3.25523,-16.61942 l 5.92627,-6.44926 2.27655,2.03243 c 26.91262,24.02657 46.85572,38.11914 70.03126,49.4868 l 6.75471,3.3132 7.74529,-3.80185 C 491.852,586.79974 552.70974,492.16097 560.17599,385.38551 c 0.33936,-4.85327 0.82831,-9.85335 1.08655,-11.11129 l 0.46954,-2.28715 9.22162,0.28715 9.22162,0.28715 -0.29837,7 c -4.96863,116.56696 -75.42363,225.67861 -175.07647,271.13592 -9.75765,4.45102 -10.87563,4.33825 -24.73851,-2.49532 z M 228.17532,627.66255 c -26.02158,-8.22954 -32.38184,-37.99756 -12.22039,-57.19529 16.03664,-15.27009 72.94737,-65.61999 88.41906,-78.22586 9.51948,-7.75617 9.36311,-7.14559 4.73631,-18.49424 -46.10674,-113.09102 96.15539,-206.48728 179.67149,-117.95581 82.90741,87.88623 -20.85881,224.78055 -129.33648,170.62808 -4.80151,-2.39693 -8.92241,-4.35806 -9.15754,-4.35806 -0.23514,0 -11.59027,12.4875 -25.23362,27.75 -42.55941,47.61022 -65.08351,71.71574 -69.14251,73.99703 -8.39575,4.71868 -19.93335,6.3219 -27.73632,3.85415 z m 18.07973,-17.38991 c 3.79371,-1.94628 12.58315,-11.18072 52.92027,-55.59947 15.4,-16.95829 28.74078,-32.2464 29.64617,-33.97358 0.9054,-1.72717 2.5929,-3.99708 3.75,-5.04425 2.90374,-2.62784 2.78079,-2.9979 -3.04122,-9.15383 -6.80672,-7.19709 -11.37849,-5.64258 -29.34951,9.97953 -6.44571,5.60321 -50.42237,44.54782 -68.9159,61.03015 -20.49634,18.26733 -8.37883,44.75048 14.99019,32.76145 z M 427.39217,514.49281 C 527.88722,493.83805 511.93622,344.24376 409.17532,343.64868 l -14,-0.0811 -7.89503,2.28361 C 279.93074,376.9017 318.00467,536.97521 427.39217,514.49278 Z M 245.0581,511.31137 C 222.0088,461.93865 208.28248,400.17092 207.39839,341.84466 l -0.22307,-14.71671 2.04978,-2.05528 c 1.48959,-1.4936 5.04238,-2.57262 13,-3.94825 50.03226,-8.64903 101.98942,-25.56495 147.31877,-47.96322 17.01091,-8.40548 16.24103,-8.33727 28.20403,-2.49895 25.3298,12.36172 61.3546,25.6263 86.7059,31.92571 11.33919,2.81762 12.7569,3.87057 8.25746,6.13298 -3.3075,1.66308 -4.12782,3.36601 -3.53594,7.34043 0.95957,6.44342 0.24583,6.56166 -15.11248,2.50338 -27.43428,-7.24922 -50.8101,-15.5101 -74.04351,-26.16656 l -14.156,-6.49292 -16.344,7.9831 c -40.46363,19.76413 -97.55117,38.30228 -137.53644,44.66248 -6.51664,1.03657 -6.6293,1.41963 -5.35736,18.21553 4.25441,56.17886 15.19808,101.70368 34.56674,143.79499 l 3.68127,8 -6.84911,6.24126 c -8.54515,7.78678 -7.57993,8.04667 -12.96633,-3.49126 z m 274.61722,-180.16344 -7.5,-0.58656 -0.29771,-6.25 -0.29772,-6.25 h 5.40814 c 2.97449,0 7.51577,0.28889 10.09175,0.64196 l 4.68361,0.64196 -0.29403,6.10804 -0.29404,6.10804 -2,0.0866 c -1.1,0.0476 -5.375,-0.17739 -9.5,-0.5 z"
         id="path30608" />
      <path
         style="fill:#2f3945"
         d="m 185.92898,805.54887 c -26.38059,-13.3893 -4.23225,-41.79754 25.6651,-32.91898 7.12023,2.11448 8.48431,1.47326 7.79522,-3.66434 -1.38189,-10.30276 -16.03407,-14.84941 -29.14125,-9.04268 -5.3,2.348 -5.14645,2.40628 -8.11959,-3.08171 l -1.47369,-2.72021 2.27665,-1.49172 c 7.64722,-5.01065 27.78628,-6.91544 35.81663,-3.38759 12.22394,5.37014 14.0698,10.32827 13.70757,36.81973 l -0.2803,20.5 h -6 -6 l -0.33467,-2.5 c -0.52327,-3.90873 -1.87407,-4.61564 -4.40208,-2.30372 -4.24908,3.88586 -9.08905,5.63199 -16.76325,6.0477 l -7.5,0.40627 z m 26.43003,-9.43087 c 13.7327,-6.23486 8.12817,-15.55663 -9.35312,-15.55663 h -9.16944 l -2.58056,2.42432 c -9.82337,9.22857 6.84921,19.60379 21.10312,13.13231 z m 54.81631,10.60923 c -38.07351,-12.51714 -21.26164,-65.79152 18.51747,-58.67914 13.68986,2.4477 16.69981,6.13959 10.11465,12.40624 l -3.03999,2.89296 -4.98144,-2.14296 c -15.03646,-6.46851 -28.66323,3.3906 -26.85534,19.43011 1.45907,12.94488 18.36268,20.26078 28.86778,12.49402 l 3.11753,-2.30488 3.83414,4.36889 c 4.71563,5.37334 4.63799,5.66528 -2.4771,9.31441 l -5.74316,2.9455 -8.67727,0.29495 c -5.27645,0.17935 -10.24496,-0.22045 -12.67727,-1.0201 z M 63.171032,805.91079 c -0.285503,-0.74401 -0.401333,-19.352 -0.257402,-41.35108 l 0.261693,-39.99834 20,-0.29026 c 27.743067,-0.40265 36.646317,1.42171 42.835777,8.77747 7.1396,8.48493 5.81981,20.59238 -3.03642,27.85553 -3.10067,2.54291 -3.52351,3.28484 -2.29936,4.03447 0.825,0.50521 3.19276,1.9583 5.26169,3.22909 13.4848,8.28274 9.21293,29.62896 -7.22092,36.08238 l -5.54077,2.17581 -24.742595,0.41883 c -20.163556,0.34132 -24.838666,0.16849 -25.261693,-0.9339 z m 48.623598,-14.08305 c 6.44224,-2.76802 8.58562,-8.56872 5.42474,-14.68118 -2.68447,-5.1912 -6.65198,-6.17036 -23.750557,-5.86147 l -15.29349,0.27628 -0.28684,10.41822 c -0.210224,7.63548 0.05688,10.65464 1,11.30336 2.171673,1.49378 28.781497,0.31701 32.906147,-1.45521 z m 0.28779,-36.6763 c 10.25628,-9.64645 1.22666,-18.09007 -19.345545,-18.09007 -15.968766,0 -15.061552,-0.62886 -15.061552,10.44033 0,11.54071 -1.268021,10.75074 16.656068,10.37666 l 15.188759,-0.31699 z m 36.30186,51.28556 c -0.38992,-0.38993 -0.70896,-19.30896 -0.70896,-42.04229 v -41.33334 h 7.01098 7.01097 l -0.26097,41.75 -0.26098,41.75 -6.04104,0.2923 c -3.32257,0.16076 -6.36007,-0.0267 -6.75,-0.41667 z m 166.29104,-41.37563 v -42.09138 l 6.75,0.29569 6.75,0.29569 0.5,24.41763 c 0.61846,30.2023 -0.48837,29.77432 18.80896,7.27284 l 5.30896,-6.19047 h 7.94104 c 9.7884,0 10.11307,-1.24907 -3.55896,13.6922 -13.88618,15.17531 -14.06766,11.74593 1.5,28.34537 15.36616,16.38459 15.22863,15.96684 5.25,15.94712 -9.27693,-0.0183 -7.2656,1.33873 -21.09758,-14.23469 -14.33226,-16.13666 -14.02282,-16.14742 -14.37339,0.5 l -0.27903,13.25 -6.75,0.29569 -6.75,0.29569 z m 63.31279,-118.96095 c -23.65387,-11.92038 -43.82266,-25.64864 -63.11339,-42.95928 -11.37599,-10.20831 -11.1578,-9.38199 -4.35837,-16.50627 l 5.34102,-5.5962 8.15898,7.34603 c 18.53574,16.68886 39.0384,30.99979 59.12389,41.26869 l 11.55574,5.90798 10.66166,-5.5 c 90.35481,-46.61108 145.55216,-133.11303 155.69767,-244 l 1.14368,-12.5 8.82206,-0.29015 8.82206,-0.29016 -0.67275,6.79016 c -12.53785,126.54508 -69.53651,217.23773 -167.39173,266.34309 -17.14087,8.60157 -16.6943,8.60175 -33.79052,-0.0139 z M 227.9995,626.62188 c -17.46475,-5.4609 -26.72241,-23.01392 -21.39252,-40.56141 l 2.18454,-7.19213 5.6919,-5.69124 c 11.17449,-11.17321 75.80396,-68.41826 92.4419,-81.87971 7.86295,-6.36176 7.82708,-6.16405 3.18498,-17.55023 -1.96076,-4.80938 -4.71859,-13.11865 -6.1285,-18.46505 l -2.56346,-9.72074 -0.0587,-15 c -0.41849,-106.92756 139.3576,-149.09312 198.0314,-59.73915 60.54387,92.20189 -38.63597,202.78873 -138.99904,154.98579 l -10.78332,-5.1361 -4.71668,5.4311 c -11.03754,12.70935 -43.48168,48.73877 -71.00552,78.85209 -19.5963,21.43993 -30.35933,26.52199 -45.88698,21.66678 z m 16.0598,-14.78298 c 4.85561,-1.44213 5.59741,-2.17799 38.0822,-37.77753 13.29977,-14.575 28.91724,-31.675 34.70547,-38 5.78824,-6.325 11.22478,-12.85 12.0812,-14.5 0.85642,-1.65 2.72488,-4.09094 4.15214,-5.42431 3.55949,-3.32535 3.42065,-3.73675 -3.47564,-10.29904 -7.11837,-6.77361 -6.55208,-6.658 -12.65011,-2.58265 -2.62858,1.75669 -6.18787,4.11919 -7.90954,5.25 -3.53214,2.31993 -23.44254,19.64117 -52.36568,45.556 -10.74231,9.625 -22.58139,20.14188 -26.30907,23.37085 -19.37869,16.78607 -9.61448,41.3279 13.68903,34.40668 z m 181.11602,-95.94155 c 45.88787,-7.64415 78.61676,-54.28861 70.44902,-100.40232 -12.52694,-70.72505 -98.0645,-97.82441 -148.51536,-47.05149 -60.27113,60.65588 -6.83039,161.59619 78.06634,147.45381 z M 246.067,511.31137 C 223.6136,462.40126 212.13083,413.57207 208.61608,352.0555 l -1.1716,-20.50588 1.53951,-3.68457 1.53951,-3.68457 3.82591,-0.64203 c 54.78419,-9.19345 108.38305,-26.24666 155.19446,-49.37725 17.01091,-8.40548 16.24103,-8.33727 28.20403,-2.49895 24.73924,12.07351 58.78581,24.70174 84.42958,31.31582 13.53895,3.49199 13.91591,3.693 9.68885,5.16656 -3.29434,1.14842 -5.03502,5.58122 -3.89841,9.92764 1.63546,6.25401 -50.89055,-9.67669 -87.94859,-26.67408 l -14.156,-6.49292 -16.344,7.99835 c -37.90935,18.55189 -80.77325,32.92682 -127.23732,42.67058 -18.32514,3.84288 -17.7316,3.33742 -17.01151,14.48717 3.81871,59.12888 14.88354,106.87695 34.87589,150.5 l 3.66639,8 -5.81873,5.22574 c -7.50106,6.73662 -7.71862,6.69146 -11.92705,-2.47574 z m 273.35832,-180.99155 -6.75,-0.34983 v -5.45431 -5.45431 h 5.875 c 3.23125,0 7.28125,0.28125 9,0.625 l 3.125,0.625 v 5.375 5.375 l -2.25,-0.19586 c -1.2375,-0.10772 -5.2875,-0.35328 -9,-0.54569 z"
         id="path30607" />
      <path
         style="fill:#212b35"
         d="m 184.84747,803.9873 c -24.37453,-13.9778 -1.52752,-38.58259 28.1056,-30.26796 l 5.90896,1.65797 0.9429,-1.40797 c 7.26686,-10.85105 -14.39198,-21.75132 -29.7346,-14.96455 -2.58724,1.14446 -4.80231,1.96288 -4.92237,1.81871 -0.12005,-0.14417 -0.95492,-1.71079 -1.85524,-3.48139 l -1.63696,-3.21926 2.95924,-1.53028 c 12.21091,-6.31451 31.87521,-5.76506 40.05675,1.11925 6.93029,5.83146 8.3114,12.72286 7.33496,36.59955 l -0.6441,15.75 h -5.34364 -5.34365 v -3.03138 c 0,-4.11577 -2.20625,-4.67582 -6.25489,-1.58777 -5.35178,4.082 -10.13921,5.6199 -17.46299,5.60977 l -6.78212,-0.009 z m 25.24905,-6.02578 c 5.89789,-1.63751 9.5788,-5.81624 9.5788,-10.87425 v -4.12795 l -3.75,-1.58492 c -12.05801,-5.09626 -28.27887,-1.34722 -28.23525,6.52587 0.0492,8.88879 10.20478,13.44897 22.40645,10.06125 z m 56.28148,7.65753 c -21.83067,-7.78719 -26.57982,-39.44668 -7.78322,-51.88568 14.93194,-9.88148 46.79348,-5.21663 37.25837,5.45501 l -2.9359,3.28584 -4.33856,-1.95642 c -14.24137,-6.42196 -28.42574,2.10377 -28.35562,17.04357 0.0714,15.22511 13.1244,23.56833 27.31913,17.46193 l 5.28721,-2.2745 3.63847,3.63846 3.63846,3.63846 -1.96551,1.49592 c -6.71239,5.10868 -23.0276,7.21334 -31.76283,4.09741 z M 63.675323,765.48326 v -40.57811 l 24.25,0.32811 24.249997,0.32811 4.96347,2.2882 c 14.39698,6.63712 17.31548,24.37455 5.28653,32.12935 -4.60139,2.96641 -4.71937,4.54114 -0.5,6.67375 15.32548,7.74598 14.90205,27.88578 -0.75,35.67293 -5.84927,2.91011 -13.70623,3.73577 -35.549218,3.73577 H 63.675323 Z m 46.916727,27.602 c 9.8068,-2.81256 11.96,-14.40902 3.76127,-20.25706 l -3.178,-2.26683 h -16.999997 -17 l -0.286996,10.4324 c -0.157849,5.73782 -0.05947,11.02532 0.218615,11.75 0.618189,1.61097 28.082078,1.89106 33.485108,0.34149 z m 0.0989,-35.88089 c 7.19138,-3.83265 7.18254,-14.37347 -0.0156,-18.59186 l -3.5,-2.05114 -13.499997,0.0206 c -7.425,0.0113 -14.2875,0.33469 -15.25,0.71862 l -1.75,0.69806 v 9.33138 c 0,12.157 -0.597379,11.73138 16.465602,11.73138 h 14.065605 z m 37.98439,7.857 v -41 h 6 6 v 41 41 h -6 -6 z m 166.12753,0 -0.17292,-41 h 6.50523 6.50522 l 0.26747,24.75 0.26747,24.75 2.0686,0.29578 c 1.53438,0.2194 3.98773,-1.94601 9.5,-8.38499 4.08727,-4.77443 8.94627,-10.42003 10.79777,-12.54578 l 3.36636,-3.86501 h 6.88364 c 5.89512,0 8.74419,1.00642 6.13363,2.16667 -1.59958,0.71093 -22.25,23.88487 -22.25,24.969 0,0.63141 5.85,7.3372 13,14.90175 15.34882,16.23873 14.90563,14.98248 5.25,14.88166 l -7.75,-0.0809 -11.5,-13.39 c -8.34194,-9.71293 -12.11788,-13.39799 -13.75,-13.41908 l -2.25,-0.0291 v 13.5 13.5 h -6.34977 -6.34978 z M 380.17534,646.42859 C 353.6047,632.89634 333.69865,619.13807 311.2846,598.81403 l -5.89074,-5.34145 5.14993,-5.37128 5.14994,-5.37128 2.2408,1.97974 c 18.79091,16.6017 28.77344,24.31958 44.74081,34.59088 11.8571,7.62729 29.27124,16.76073 31.9566,16.76073 4.87442,0 35.00072,-17.53464 51.2807,-29.84729 5.56518,-4.20899 11.99291,-9.06838 14.28384,-10.79865 52.39547,-39.57279 95.66012,-129.71471 102.04176,-212.60406 l 0.67366,-8.75 h 7.88172 7.88172 l -10e-4,1.75 c -6.7e-4,0.9625 -0.70505,7.825 -1.56529,15.25 -13.20807,114.00263 -65.80829,198.71137 -154.0673,248.1139 -26.74933,14.9728 -27.46965,15.09468 -42.8662,7.25332 z M 229.00731,626.10208 c -13.64208,-3.24933 -24.06283,-17.81922 -23.06743,-32.25199 0.93462,-13.55156 2.26281,-15.04261 54.14883,-60.78872 3.43101,-3.025 13.13089,-11.575 21.5553,-19 8.4244,-7.425 19.19029,-16.44087 23.9242,-20.03527 l 8.60711,-6.53527 -0.12434,-3.46473 c -0.0684,-1.9056 -1.79473,-7.70712 -3.83632,-12.89228 -43.9384,-111.59312 94.18518,-199.79156 177.58116,-113.39397 81.64583,84.58444 -19.62724,218.749 -126.4657,167.53924 l -11.84521,-5.67763 -3.15479,3.51389 c -1.73514,1.93264 -8.60706,9.57362 -15.27095,16.97996 -6.66388,7.40633 -18.07999,20.21606 -25.36913,28.46606 -15.16737,17.16673 -34.36831,37.93361 -44.06911,47.66316 l -6.64347,6.66316 -6.7564,2.08684 c -6.84282,2.11353 -13.44701,2.5011 -19.21375,1.12755 z m 17.66801,-13.71655 c 1.925,-0.7823 5.91168,-3.98777 8.85929,-7.12326 9.56652,-10.1763 26.43884,-28.50879 35.14071,-38.18186 4.675,-5.19677 11.65,-12.8395 15.5,-16.98385 14.41474,-15.51681 22.27807,-24.62535 23.77089,-27.53519 0.8465,-1.65 2.70684,-4.09094 4.1341,-5.42431 4.00115,-3.73795 3.2596,-5.89622 -4.4313,-12.89728 l -6.94448,-6.3216 -6.08274,3.8216 c -9.01555,5.66419 -29.817,23.29168 -59.40719,50.34261 -6.73045,6.15288 -18.77535,16.73157 -28.34331,24.89311 -21.063,17.96689 -7.1863,45.56594 17.80403,35.41003 z m 185.8621,-97.17275 c 84.04198,-22.94103 86.62626,-143.30268 3.6379,-169.43404 -63.51727,-20.0003 -125.33237,33.63764 -113.95496,98.88055 8.95114,51.32963 60.34032,84.19569 110.31706,70.55349 z m -187.8117,-8.82264 c -25.66385,-56.29695 -46.94838,-178.47753 -31.67381,-181.81868 1.16788,-0.25546 5.04841,-0.94203 8.62341,-1.52572 46.51731,-7.59486 105.01506,-26.51358 147.23751,-47.61799 17.39555,-8.69497 16.80127,-8.63794 28.83507,-2.76705 23.77789,11.60043 56.62889,23.81821 82.92742,30.84196 l 12.5,3.33848 -2.75,1.08536 -2.75,1.08537 v 5.54381 5.5438 l -2.75,-0.64714 c -30.74984,-7.23618 -58.22985,-16.58258 -83.81888,-28.5082 l -15.06888,-7.02276 -17.43112,8.46982 c -41.1341,19.98714 -97.83543,38.44866 -135.93112,44.25814 -7.82064,1.19262 -8,1.43446 -8,10.7866 0,42.24066 13.65424,105.13559 31.9377,147.11321 l 6.09241,13.98779 -5.26505,4.71892 c -6.99949,6.27346 -6.63531,6.47011 -12.71466,-6.86572 z m 273.59682,-177.07082 -5.85278,-0.36389 0.58913,-2.19703 c 0.32402,-1.20836 0.59527,-3.20953 0.60278,-4.44703 l 0.0137,-2.25 h 8 8 v 1.875 c 0,1.03125 0.28125,3.28125 0.625,5 l 0.625,3.125 -3.375,-0.18908 c -1.85625,-0.104 -6.00875,-0.35283 -9.22778,-0.55297 z"
         id="path30606" />
      <path
         style="fill:#1e2731"
         d="m 191.17532,806.08873 c -1.30785,-0.54411 0.29865,-0.77935 4.64206,-0.67971 3.65313,0.0838 6.43907,0.48985 6.19098,0.90235 -0.59657,0.99192 -8.29393,0.83372 -10.83304,-0.22264 z m 77.5,-0.3338 c -1.925,-0.65645 -3.40149,-1.64356 -3.28109,-2.19356 0.36822,-1.68204 5.12397,-1.72346 7.4914,-0.0652 1.4398,1.00847 4.5566,1.59025 8.7622,1.63553 4.5736,0.0493 5.92883,0.32754 4.52749,0.92971 -2.92786,1.25815 -13.45241,1.07386 -17.5,-0.30644 z m -118.25,-0.38288 c -1.96155,-0.51261 -2.58563,-8.67619 -0.75,-9.81068 0.55976,-0.34594 1,-5.05995 1,-10.70772 v -10.08968 l 3.18778,-6.27538 3.18777,-6.27538 -2.81694,-7.17991 c -2.21898,-5.6558 -2.71571,-8.27228 -2.34005,-12.32592 0.26229,-2.8303 0.19769,-8.18351 -0.14355,-11.89601 l -0.62043,-6.75 h 4.77271 4.77271 v 41 41 l -4.25,-0.116 c -2.3375,-0.0638 -5.0375,-0.32179 -6,-0.57332 z m 165.40574,-8.31068 c 0.12591,-6.75344 0.2803,-7.55678 0.75137,-3.90965 l 0.59289,4.59035 4,6.6e-4 4,6.5e-4 0.59981,-4.091 c 0.46829,-3.19398 0.63274,-2.41197 0.75,3.56644 l 0.15019,7.65746 -5.50136,0.34254 -5.50136,0.34255 z m 35.29877,2.31565 -5.67075,-6.68436 1.60812,-1.17588 c 0.88447,-0.64674 1.60812,-1.59878 1.60812,-2.11565 0,-4.39828 2.81901,-2.98466 11.71558,5.87492 11.04579,10.99986 10.98915,10.78532 2.84705,10.78532 h -6.43738 z M 63.675323,764.90225 v -40.15912 l 23.055307,0.66978 c 34.60115,1.0052 45.28098,6.86422 42.60216,23.37184 -1.11375,6.86325 -7.98308,13.47921 -8.37579,8.06686 -0.24176,-3.33198 -2.02174,-6.06892 -3.39498,-5.22021 -0.48768,0.30141 -0.8867,-1.02425 -0.8867,-2.94591 0,-5.89303 -1.60982,-8.56398 -6.45282,-10.70627 l -4.46093,-1.97328 -14.293125,0.27772 -14.293122,0.27771 -0.281523,11.1187 -0.281523,11.1187 3.156523,0.6313 c 1.736088,0.34722 7.937773,0.68351 13.781523,0.74731 5.84375,0.0638 9.831217,0.323 8.861037,0.57601 l -1.76397,0.46001 2.16022,3.03376 c 1.18813,1.66857 3.55691,3.65282 5.26397,4.40944 l 3.10374,1.37569 -4,-0.18602 c -2.2,-0.10231 -9.893797,-0.0958 -17.097331,0.0145 l -13.097335,0.20056 -0.594929,11.83244 -0.594929,11.83244 -2.94849,3.15637 c -3.912252,4.18808 -3.646987,6.50849 0.833017,7.28685 2.638258,0.45837 1.838069,0.64303 -3.25,0.75 l -6.75,0.1419 z m 38.168667,39.23388 c 6.41776,-0.31611 12.04276,-0.95239 12.5,-1.41394 0.45723,-0.46155 -0.96867,-0.57337 -3.16867,-0.24849 -2.2,0.32488 -3.4375,0.32751 -2.75,0.006 4.08565,-1.91157 -3.19266,-6.31616 -10.836016,-6.55761 -2.593889,-0.0819 -0.843237,-0.45724 4.245586,-0.91017 15.97832,-1.42213 22.436,-9.36214 16.20006,-19.91874 -5.53059,-9.36255 5.0746,-10.12311 11.93806,-0.85615 11.0662,14.94145 -4.55057,31.08288 -29.65302,30.64925 l -10.144667,-0.17524 z m 85.83133,0.42524 c 0,-0.275 0.225,-0.5 0.5,-0.5 0.275,0 0.5,0.225 0.5,0.5 0,0.275 -0.225,0.5 -0.5,0.5 -0.275,0 -0.5,-0.225 -0.5,-0.5 z m 34.116,-1.75 c 0.0826,-1.60218 0.24454,-1.76245 0.56242,-0.55664 0.2905,1.10195 1.73431,1.82905 4.134,2.0819 l 3.68758,0.38854 -4.25,0.1681 -4.25,0.1681 z m 8.884,1.75 c 0,-0.275 0.225,-0.5 0.5,-0.5 0.275,0 0.5,0.225 0.5,0.5 0,0.275 -0.225,0.5 -0.5,0.5 -0.275,0 -0.5,-0.225 -0.5,-0.5 z m 27.79076,-4.05061 c -19.49245,-10.58028 -10.95861,-47.54516 11.70924,-50.71934 1.65,-0.23104 2.4375,-0.23183 1.75,-0.002 -1.9305,0.64609 -1.50577,1.70647 1.60461,4.00608 2.4904,1.84123 6.50971,2.99669 17.32445,4.98038 1.62247,0.2976 2.4882,0.98878 2.19512,1.75254 -0.36769,0.95817 -1.36237,0.81329 -4.1405,-0.60309 -18.54055,-9.4525 -36.16694,9.82984 -26.57717,29.07401 2.15476,4.32405 2.43807,5.68068 1.5,7.18278 -0.63608,1.01852 -1.15651,2.75796 -1.15651,3.86543 0,2.36858 -0.58074,2.43245 -4.20924,0.46295 z m -1.4258,-32.95807 c 0.70203,-1.82946 -0.93625,-6.49132 -2.28119,-6.49132 -1.51255,0 -2.57438,2.33647 -1.26082,2.77432 0.64738,0.21579 1.17705,1.47985 1.17705,2.80902 0,2.68647 1.46644,3.24948 2.36496,0.90798 z m -26.14152,31.09202 c -0.12289,-1.60417 -0.5087,-2.63141 -0.85735,-2.28276 -0.34865,0.34865 -1.75934,-0.25135 -3.13486,-1.33333 -1.37552,-1.08199 -3.48978,-1.96725 -4.69836,-1.96725 h -2.19741 l 0.45501,-5.48682 0.45501,-5.48682 -2.37274,-1.01811 -2.37274,-1.0181 3.18047,0.56911 c 4.27945,0.76576 5.42327,-1.50416 3.80914,-7.55926 l -1.19959,-4.5 -0.49517,3 c -0.38775,2.34916 -0.52769,1.99977 -0.64501,-1.61045 -0.0976,-3.00147 -0.9726,-5.82286 -2.50741,-8.08453 -2.57863,-3.79982 -1.75157,-6.80502 1.8728,-6.80502 h 1.79475 l -1.90499,-2.1455 -1.90499,-2.14551 2.16178,1.13347 c 8.98485,4.711 11.53207,12.30964 11.1151,33.15754 -0.1815,9.075 -0.43055,15.1875 -0.55344,13.58334 z m -53.07742,-3.5 c -1.9166,-5.16534 -2.0815,-6.1559 -1.5048,-9.03941 0.32276,-1.61381 1.32303,-3.6025 2.22281,-4.41931 0.89979,-0.81682 2.94805,-2.69562 4.5517,-4.17514 3.70268,-3.41606 8.60251,-5.47155 12.80215,-5.37053 1.80517,0.0434 2.76739,0.29 2.13828,0.54795 -1.91991,0.7872 -0.2998,4.36733 2.01047,4.44276 1.17336,0.0383 -0.11663,0.73556 -2.86663,1.54946 -2.94417,0.87136 -6.16017,2.73244 -7.82168,4.52635 l -2.82167,3.04653 0.63986,3.78735 0.63987,3.78736 -2.81819,1.97261 c -3.79148,2.65388 -6.01965,2.45009 -7.17217,-0.65598 z m 104.66648,2.23355 c 0.72188,-0.28887 1.58438,-0.25334 1.91667,0.079 0.33229,0.33229 -0.25833,0.56864 -1.3125,0.52522 -1.16494,-0.048 -1.4019,-0.28494 -0.60417,-0.60417 z M 148.87027,778.56137 c 0.0204,-1.65 0.2445,-2.20393 0.49804,-1.23096 0.25355,0.97296 0.23687,2.32296 -0.0371,3 -0.27392,0.67703 -0.48137,-0.11904 -0.46099,-1.76904 z m 167.19041,-10.5 c 0,-6.875 0.15977,-9.6875 0.35504,-6.25 0.19527,3.4375 0.19527,9.0625 0,12.5 -0.19527,3.4375 -0.35504,0.625 -0.35504,-6.25 z m 9.93472,-3 c 0,-3.575 0.18149,-5.0375 0.40332,-3.25 0.22183,1.7875 0.22183,4.7125 0,6.5 -0.22183,1.7875 -0.40332,0.325 -0.40332,-3.25 z m 24.34598,0.25 c -1.89856,-3.15041 -2.37336,-8.2459 -0.88101,-9.4548 0.87938,-0.71236 1.30042,-0.79659 0.93565,-0.18719 -0.38057,0.6358 0.78725,1.88914 2.74022,2.94088 l 3.40344,1.83287 -2.00027,2.80912 c -2.00013,2.80892 -3.34781,3.46996 -4.19803,2.05912 z m -0.66606,-7.75 c 0,-0.275 -0.225,-0.5 -0.5,-0.5 -0.275,0 -0.5,0.225 -0.5,0.5 0,0.275 0.225,0.5 0.5,0.5 0.275,0 0.5,-0.225 0.5,-0.5 z m -164,2 c 0,-0.275 0.225,-0.5 0.5,-0.5 0.275,0 0.5,0.225 0.5,0.5 0,0.275 -0.225,0.5 -0.5,0.5 -0.275,0 -0.5,-0.225 -0.5,-0.5 z m 168,-9 c 0,-0.275 0.225,-0.5 0.5,-0.5 0.275,0 0.5,0.225 0.5,0.5 0,0.275 -0.225,0.5 -0.5,0.5 -0.275,0 -0.5,-0.225 -0.5,-0.5 z m 8.75,-0.16228 c 0.6875,-0.27741 1.8125,-0.27741 2.5,0 0.6875,0.27742 0.125,0.50439 -1.25,0.50439 -1.375,0 -1.9375,-0.22697 -1.25,-0.50439 z m -46.56984,-15.58772 -0.18016,-10.75 4.25,0.11601 c 2.3375,0.0638 3.4625,0.32179 2.5,0.57332 -0.9625,0.25153 -1.75,0.86918 -1.75,1.37257 0,0.50338 -0.7875,1.83021 -1.75,2.9485 -1.15746,1.34482 -1.94294,4.48065 -2.31984,9.26143 l -0.56984,7.22817 z m 10.10586,-6.25 c 0.008,-2.75 0.20171,-3.75631 0.43156,-2.23625 0.22986,1.52007 0.22372,3.77007 -0.0136,5 -0.23736,1.22994 -0.42542,-0.0137 -0.41791,-2.76375 z m -119.63647,-129.75 c -0.31516,-1.7875 -0.18631,-4.825 0.28635,-6.75 l 0.85938,-3.5 0.10236,6.75 c 0.11119,7.332 -0.34626,8.61481 -1.24809,3.5 z m 7.59971,0.82995 c -3.48154,-1.26531 -6.43719,-3.57995 -4.57138,-3.57995 2.04196,0 8.32212,3.02867 8.32212,4.01342 0,0.54262 -0.1125,0.9329 -0.25,0.86727 -0.1375,-0.0656 -1.71283,-0.65095 -3.50074,-1.30074 z m 307.34437,-53.42845 c -0.39141,-0.63332 -0.26543,-1.1515 0.27997,-1.1515 0.54539,0 1.26408,-0.85842 1.59708,-1.90761 0.333,-1.04919 1.27374,-2.16407 2.09053,-2.4775 1.1521,-0.4421 1.2721,-0.18255 0.53521,1.15762 -2.18367,3.97137 -3.78952,5.53308 -4.50279,4.37899 z m 5.40637,-7.6515 c 0,-0.275 0.225,-0.5 0.5,-0.5 0.275,0 0.5,0.225 0.5,0.5 0,0.275 -0.225,0.5 -0.5,0.5 -0.275,0 -0.5,-0.225 -0.5,-0.5 z m -138.80488,-4.0264 c -9.94401,-2.26429 -10.85645,-3.41505 -2.69512,-3.39905 7.36568,0.0144 17.96585,2.20627 15.45347,3.19535 -0.79941,0.31472 1.47153,0.57611 5.04653,0.58087 3.9605,0.005 5.74608,-0.28664 4.57031,-0.74717 -2.49332,-0.9766 6.54996,-4.1036 11.86759,-4.1036 1.95916,0 3.5621,-0.45 3.5621,-1 0,-1.61973 8.59754,-1.18986 10,0.5 0.68469,0.825 1.97729,1.54494 2.87245,1.59986 0.89515,0.0549 -1.07245,1.01831 -4.37245,2.14087 -7.92805,2.69688 -36.53095,3.45844 -46.30488,1.23287 z m 142.80488,-1.9736 c 0,-0.275 0.225,-0.5 0.5,-0.5 0.275,0 0.5,0.225 0.5,0.5 0,0.275 -0.225,0.5 -0.5,0.5 -0.275,0 -0.5,-0.225 -0.5,-0.5 z m -155,-2 c 0,-0.275 0.225,-0.5 0.5,-0.5 0.275,0 0.5,0.225 0.5,0.5 0,0.275 -0.225,0.5 -0.5,0.5 -0.275,0 -0.5,-0.225 -0.5,-0.5 z m 65.33334,-0.16666 c 0.36666,-0.36667 0.96666,-0.36667 1.33333,0 0.36667,0.36666 0.0667,0.66666 -0.66667,0.66666 -0.73333,0 -1.03333,-0.3 -0.66666,-0.66666 z m 90.66666,0.16666 c 0,-0.275 0.225,-0.5 0.5,-0.5 0.275,0 0.5,0.225 0.5,0.5 0,0.275 -0.225,0.5 -0.5,0.5 -0.275,0 -0.5,-0.225 -0.5,-0.5 z m 1.50945,-3.25 c 0.39788,-0.9625 1.23353,-4.225 1.85699,-7.25 0.93246,-4.52425 1.53273,-5.55669 3.38356,-5.81955 3.08032,-0.43747 2.85223,1.05048 -1.29894,8.47345 -3.30965,5.91821 -5.58486,8.57121 -3.94161,4.5961 z M 411.67532,522.6347 c 0,-0.78467 0.7875,-1.63247 1.75,-1.884 0.9625,-0.25153 -2.075,-0.54115 -6.75,-0.64361 -4.675,-0.10246 -9.4,-0.57049 -10.5,-1.04008 -1.1808,-0.50409 1.89116,-0.62543 7.5,-0.29624 8.20612,0.48161 18.40892,-0.41601 26.5,-2.33143 l 2,-0.47346 -1.75631,1.10097 c -0.96597,0.60553 -3.66597,1.42531 -6,1.82173 -3.35288,0.56946 -4.31076,1.18803 -4.56324,2.94678 l -0.31955,2.22601 h -3.93045 c -2.73728,0 -3.93045,-0.43309 -3.93045,-1.42667 z m -2,-1.07333 c 0,-0.275 0.225,-0.5 0.5,-0.5 0.275,0 0.5,0.225 0.5,0.5 0,0.275 -0.225,0.5 -0.5,0.5 -0.275,0 -0.5,-0.225 -0.5,-0.5 z m -18.66666,-4.16666 c 0.36666,-0.36667 0.96666,-0.36667 1.33333,0 0.36667,0.36666 0.0667,0.66666 -0.66667,0.66666 -0.73333,0 -1.03333,-0.3 -0.66666,-0.66666 z m 77.16666,-0.33334 c 0.33992,-0.55 0.84304,-1 1.11804,-1 0.275,0 0.22188,0.45 -0.11804,1 -0.33992,0.55 -0.84303,1 -1.11803,1 -0.275,0 -0.22189,-0.45 0.11803,-1 z m -218.95741,-2.91764 c -1.95735,-3.78511 -1.95386,-4.66857 0.012,-3.03704 2.33607,1.93876 3.61735,4.73038 2.4907,5.42669 -0.52807,0.32636 -1.65429,-0.74898 -2.50271,-2.38965 z m 223.6836,-0.66108 c 0.94941,-0.99122 1.94144,-1.58698 2.20453,-1.3239 0.26308,0.26309 -0.51371,1.07409 -1.72619,1.80223 l -2.20453,1.3239 z m 70.69391,-6.67128 c 0.47882,-1.2375 2.53223,-5.85 4.56313,-10.25 2.13472,-4.62493 3.80284,-9.89847 3.954,-12.5 0.1438,-2.475 0.32925,-5.73245 0.41212,-7.23879 0.14061,-2.5563 5.15065,-4.0732 5.15065,-1.55947 0,1.16804 -9.81826,25.5217 -12.06326,29.92228 -2.15275,4.21974 -3.41359,5.23633 -2.01664,1.62598 z m -301.9201,-9.25 c 0,-0.275 0.225,-0.5 0.5,-0.5 0.275,0 0.5,0.225 0.5,0.5 0,0.275 -0.225,0.5 -0.5,0.5 -0.275,0 -0.5,-0.225 -0.5,-0.5 z m 13.45888,-1.56653 c -0.36253,-0.58659 -0.44468,-1.281 -0.18255,-1.54312 0.26213,-0.26213 0.74307,0.21781 1.06875,1.06653 0.67618,1.7621 0.0999,2.07205 -0.8862,0.47659 z m -14.45888,-0.43347 c 0,-0.275 0.225,-0.5 0.5,-0.5 0.275,0 0.5,0.225 0.5,0.5 0,0.275 -0.225,0.5 -0.5,0.5 -0.275,0 -0.5,-0.225 -0.5,-0.5 z m 234,-4.5 c 0,-0.55 0.47656,-1 1.05902,-1 0.58246,0 0.7809,0.45 0.44098,1 -0.33992,0.55 -0.81647,1 -1.05901,1 -0.24254,0 -0.44099,-0.45 -0.44099,-1 z m 24.5643,-6.29312 c 0.37553,-0.98622 0.93469,-1.54122 1.24258,-1.23334 0.30788,0.30789 6.3e-4,1.1148 -0.68279,1.79313 -0.98761,0.98027 -1.10248,0.86541 -0.55979,-0.55979 z m 3.93755,-8.70105 c -0.56505,-1.78032 -0.25592,-2.78654 1.2243,-3.98516 3.00963,-2.43705 4.59972,-6.0717 4.43996,-10.14892 -0.15241,-3.88953 2.03737,-10.26143 3.92802,-11.42992 2.5966,-1.60478 -2.14593,14.90468 -6.99879,24.36388 l -1.83757,3.5818 z m 41.49815,-6.50583 c 0,-0.275 0.225,-0.5 0.5,-0.5 0.275,0 0.5,0.225 0.5,0.5 0,0.275 -0.225,0.5 -0.5,0.5 -0.275,0 -0.5,-0.225 -0.5,-0.5 z M 244.0204,467.51825 c -0.32568,-0.84872 -0.36871,-1.76657 -0.0956,-2.03967 0.2731,-0.27309 0.73656,0.42132 1.02992,1.54313 0.62315,2.38293 -0.0692,2.75089 -0.9343,0.49654 z m 301.65492,-0.95688 c 0,-0.275 0.225,-0.5 0.5,-0.5 0.275,0 0.5,0.225 0.5,0.5 0,0.275 -0.225,0.5 -0.5,0.5 -0.275,0 -0.5,-0.225 -0.5,-0.5 z m -303,-3.5 c 0,-0.73333 0.3,-1.03333 0.66667,-0.66666 0.36667,0.36666 0.36667,0.96666 0,1.33333 -0.36667,0.36667 -0.66667,0.0667 -0.66667,-0.66667 z m 317.66667,-2.66666 c -1.17531,-1.17531 -0.71266,-3.33334 0.71462,-3.33334 0.81558,0 1.86452,-1.94536 2.5612,-4.75 2.12006,-8.53468 4.23484,-15.406 4.62226,-15.01858 0.20885,0.20884 -0.95779,5.47767 -2.59251,11.70851 -1.63473,6.23083 -2.97224,11.49333 -2.97224,11.69443 0,0.61584 -1.62627,0.40604 -2.33333,-0.30102 z M 321.67532,450.06137 c 0,-0.73333 0.3,-1.03333 0.66667,-0.66666 0.36667,0.36666 0.36667,0.96666 0,1.33333 -0.36667,0.36667 -0.66667,0.0667 -0.66667,-0.66667 z m -17.8421,-3 c 0,-1.375 0.22697,-1.9375 0.50438,-1.25 0.27742,0.6875 0.27742,1.8125 0,2.5 -0.27741,0.6875 -0.50438,0.125 -0.50438,-1.25 z m 210,0 c 0,-1.375 0.22697,-1.9375 0.50438,-1.25 0.27742,0.6875 0.27742,1.8125 0,2.5 -0.27741,0.6875 -0.50438,0.125 -0.50438,-1.25 z m -194.51461,-3.70973 c 0.63577,-6.2106 -0.40078,-12.28271 -1.73667,-10.17341 -0.61402,0.96951 -0.87599,0.48598 -0.87599,-1.61686 0,-2.30174 0.22562,-2.65087 0.96937,-1.5 0.75104,1.16216 0.99816,0.82431 1.09715,-1.5 0.0703,-1.65 0.7427,1.725 1.49428,7.5 0.75158,5.775 1.18649,10.95 0.96649,11.5 -0.22001,0.55 -0.48879,-0.35 -0.59728,-2 l -0.19727,-3 -0.8267,3 c -0.59263,2.1506 -0.6757,1.52495 -0.29338,-2.20973 z m -81.64329,2.70973 c 0,-0.73333 0.3,-1.03333 0.66667,-0.66666 0.36667,0.36666 0.36667,0.96666 0,1.33333 -0.36667,0.36667 -0.66667,0.0667 -0.66667,-0.66667 z m -1,-3.5 c 0,-0.825 -0.36665,-1.5 -0.81478,-1.5 -0.44814,0 -1.55818,-1.5589 -2.46677,-3.46423 l -1.65198,-3.46423 1.29515,-3.08025 1.29515,-3.08026 1.08779,3.79449 c 1.49527,5.21588 2.55658,12.29448 1.84334,12.29448 -0.32334,0 -0.5879,-0.675 -0.5879,-1.5 z m 66.19575,-12.56634 c -0.18667,-11.98392 0.99247,-22.6954 2.85483,-25.93366 0.53324,-0.92718 0.63833,-0.068 0.27521,2.25 -0.38678,2.46893 -0.20115,3.75 0.54337,3.75 0.73343,0 1.13084,2.46006 1.13084,7 0,6.33658 -2.42158,10.69366 -3.19574,5.75 -0.10766,-0.6875 -0.46958,3.475 -0.80426,9.25 l -0.6085,10.5 z m 11.80425,2.56634 c 0,-0.275 0.225,-0.5 0.5,-0.5 0.275,0 0.5,0.225 0.5,0.5 0,0.275 -0.225,0.5 -0.5,0.5 -0.275,0 -0.5,-0.225 -0.5,-0.5 z m -82,-7.5 c 0,-0.73333 0.3,-1.03333 0.66667,-0.66666 0.36667,0.36666 0.36667,0.96666 0,1.33333 -0.36667,0.36667 -0.66667,0.0667 -0.66667,-0.66667 z m 282.1579,-4 c 0,-1.375 0.22697,-1.9375 0.50438,-1.25 0.27742,0.6875 0.27742,1.8125 0,2.5 -0.27741,0.6875 -0.50438,0.125 -0.50438,-1.25 z m 56.92105,-3.58333 c 0.048,-1.16494 0.28494,-1.4019 0.60417,-0.60417 0.28887,0.72188 0.25334,1.58438 -0.0789,1.91667 -0.33229,0.33229 -0.56864,-0.25833 -0.52522,-1.3125 z m -57.92105,-4.41667 c 0,-1.375 0.22697,-1.9375 0.50438,-1.25 0.27742,0.6875 0.27742,1.8125 0,2.5 -0.27741,0.6875 -0.50438,0.125 -0.50438,-1.25 z m -193.08761,-1.08333 c 0.0387,-1.32917 0.47804,-3.31667 0.97641,-4.41667 0.63152,-1.39389 0.72155,-0.78779 0.29705,2 -0.70698,4.64301 -1.37509,5.91089 -1.27346,2.41667 z m 252.00866,-0.5 c 0.048,-1.16494 0.28494,-1.4019 0.60417,-0.60417 0.28887,0.72188 0.25334,1.58438 -0.0789,1.91667 -0.33229,0.33229 -0.56864,-0.25833 -0.52522,-1.3125 z m -254.07895,-0.41667 c 0,-0.73333 0.3,-1.03333 0.66667,-0.66666 0.36667,0.36666 0.36667,0.96666 0,1.33333 -0.36667,0.36667 -0.66667,0.0667 -0.66667,-0.66667 z m 176.20417,-5.53746 c -0.70558,-2.7294 -2.32978,-7.52506 -3.60933,-10.65704 -1.94244,-4.75454 -2.08751,-5.7862 -0.87886,-6.25 3.02727,-1.16167 3.54773,-0.55824 3.00547,3.4846 -0.35819,2.67049 0.12279,5.93124 1.41881,9.61863 1.07838,3.0682 1.82257,6.2958 1.65374,7.17244 -0.16883,0.87665 -0.88425,-0.63924 -1.58983,-3.36863 z m 17.79583,2.03746 c 0,-0.275 0.225,-0.5 0.5,-0.5 0.275,0 0.5,0.225 0.5,0.5 0,0.275 -0.225,0.5 -0.5,0.5 -0.275,0 -0.5,-0.225 -0.5,-0.5 z m 47,-1.5 c 0,-0.73333 0.3,-1.03333 0.66667,-0.66666 0.36667,0.36666 0.36667,0.96666 0,1.33333 -0.36667,0.36667 -0.66667,0.0667 -0.66667,-0.66667 z m 13.56077,-0.90932 c -1.66797,-5.04428 -1.04998,-11.65527 1.37348,-14.69299 l 2.31176,-2.89769 -0.68683,6.5 c -0.37776,3.575 -1.02769,8.075 -1.44428,10 l -0.75745,3.5 z m -61.56077,-1.59068 c 0,-0.275 0.225,-0.5 0.5,-0.5 0.275,0 0.5,0.225 0.5,0.5 0,0.275 -0.225,0.5 -0.5,0.5 -0.275,0 -0.5,-0.225 -0.5,-0.5 z m -1,-4 c 0,-0.275 0.225,-0.5 0.5,-0.5 0.275,0 0.5,0.225 0.5,0.5 0,0.275 -0.225,0.5 -0.5,0.5 -0.275,0 -0.5,-0.225 -0.5,-0.5 z m -0.92105,-2.21861 c -0.0434,-0.67024 -0.75395,-0.95959 -1.57895,-0.64301 -1.08913,0.41794 -1.5,-0.11565 -1.5,-1.94805 0,-1.38801 -0.44202,-2.67366 -0.98227,-2.85699 -0.58756,-0.19939 -0.66722,-1.50853 -0.19823,-3.25788 l 0.78404,-2.92455 2.25732,5.24728 c 1.24153,2.88601 2.04126,5.77705 1.77718,6.42455 -0.35673,0.87468 -0.50043,0.86405 -0.55909,-0.0414 z M 329.88904,381.5696 c -0.0271,-3.02048 0.36367,-5.74704 0.86847,-6.05902 0.5048,-0.31198 0.91781,-1.37094 0.91781,-2.35323 0,-3.68366 6.76963,-6.89578 8.53001,-4.04742 0.43569,0.70495 1.17336,0.62303 2.25107,-0.25 0.88166,-0.7142 -0.18064,1.17644 -2.36067,4.20144 -2.18003,3.025 -5.19784,7.4125 -6.70624,9.75 -3.45142,5.34852 -3.4412,5.35214 -3.50045,-1.24177 z m -17.20859,2.964 c 0.003,-0.53473 1.13396,-2.77223 2.51366,-4.97223 l 2.50853,-4 -0.63505,3 c -0.60398,2.85319 -4.39792,8.01789 -4.38714,5.97223 z m 250.24706,-3.97223 c 0.0111,-2.2 0.21588,-2.98225 0.45507,-1.73834 0.2392,1.24392 0.23012,3.04392 -0.0202,4 -0.25029,0.95609 -0.44599,-0.0617 -0.43489,-2.26166 z m 13.00088,-1.20067 c -0.95371,-2.05364 -0.96917,-2.85675 -0.0657,-3.4151 0.68235,-0.42172 -0.26917,-0.90616 -2.25306,-1.14709 l -3.43427,-0.41706 4.02643,-0.16004 4.02643,-0.16004 -0.38147,4 c -0.45205,4.74028 -0.35187,4.67242 -1.91832,1.29933 z m -352.04681,-2.98358 c -0.66344,-1.20135 -1.20626,-2.70537 -1.20626,-3.34227 0,-0.63691 -0.9,-2.30218 -2,-3.7006 -1.28757,-1.63689 -2,-4.05679 -2,-6.79343 0,-4.57836 2.39956,-10.58811 3.31412,-8.30026 0.29039,0.72645 0.52799,-0.47919 0.52799,-2.67919 0,-2.2 -0.22697,-3.4375 -0.50439,-2.75 -0.27741,0.6875 -0.97613,1.25 -1.55272,1.25 -1.37657,0 -0.28871,-8.33209 1.15049,-8.81183 0.58548,-0.19516 1.06451,-1.23146 1.06451,-2.30288 0,-1.98582 0.44586,-2.26899 5.21471,-3.31196 1.99806,-0.43698 2.5488,-1.02604 2.08626,-2.2314 -0.6651,-1.73324 -0.94223,-1.74863 7.69903,0.42753 l 3.5,0.88142 -8.75,1.33558 -8.75,1.33557 v 6.9169 c 0,3.80429 0.48746,12.25866 1.08325,18.78748 0.59578,6.52882 0.9136,12.68126 0.70625,13.67209 l -0.37699,1.8015 z m 339.79374,-1.81575 c 0,-0.275 0.225,-0.5 0.5,-0.5 0.275,0 0.5,0.225 0.5,0.5 0,0.275 -0.225,0.5 -0.5,0.5 -0.275,0 -0.5,-0.225 -0.5,-0.5 z m -352.70033,-10.5 c 0,-3.025 0.18746,-4.2625 0.41659,-2.75 0.22912,1.5125 0.22912,3.9875 0,5.5 -0.22913,1.5125 -0.41659,0.275 -0.41659,-2.75 z m 133.30035,1.40005 c -0.8278,-2.15723 -0.30053,-2.64106 2.43116,-2.23085 l 2.20291,0.3308 -1.99349,1.79318 -1.99349,1.79317 z m -12.60002,-7.56671 c 0,-1.19167 0.12734,-1.97917 0.28297,-1.75 0.15563,0.22916 0.88573,1.20416 1.62245,2.16666 l 1.33947,1.75 h -1.62244 c -0.99738,0 -1.62245,-0.83473 -1.62245,-2.16666 z m 20.72881,0.97123 c -0.26084,-0.71751 0.44348,-2.3134 1.56514,-3.54643 1.12166,-1.23302 2.03939,-3.57764 2.03939,-5.21027 0,-4.53084 10.47225,-7.10417 15.11001,-3.71295 l 1.8256,1.33491 -7.88447,4.66566 c -4.33646,2.56611 -8.85129,5.36495 -10.03296,6.21965 -1.70247,1.2314 -2.24692,1.28318 -2.62271,0.24943 z m 24.63475,-13.5475 c 0.9506,-0.96639 2.31525,-2.61445 3.03255,-3.66237 0.95646,-1.39731 2.87718,-2.02878 7.20404,-2.36844 3.24492,-0.25473 6.59323,-1.06941 7.44069,-1.8104 4.37182,-3.82256 18.37349,-4.13257 24.33896,-0.53888 1.71611,1.03381 4.8077,2.1798 6.8702,2.54665 2.0625,0.36685 3.75,1.08804 3.75,1.60264 0,0.51459 1.14596,1.22325 2.54657,1.57478 5.26529,1.3215 1.58294,1.25339 -6.08354,-0.11252 -14.87468,-2.65018 -31.33492,-1.58129 -45.89543,2.98034 l -4.93241,1.54527 z m 58.96978,-0.92373 c 0.36666,-0.36667 0.96666,-0.36667 1.33333,0 0.36667,0.36666 0.0667,0.66666 -0.66667,0.66666 -0.73333,0 -1.03333,-0.3 -0.66666,-0.66666 z m -226.10133,-6.33334 c 0,-1.925 0.20579,-2.7125 0.45732,-1.75 0.25153,0.9625 0.25153,2.5375 0,3.5 -0.25153,0.9625 -0.45732,0.175 -0.45732,-1.75 z m 142.26799,2 c 0.33992,-0.55 1.06804,-1 1.61804,-1 0.55,0 0.72188,0.45 0.38196,1 -0.33992,0.55 -1.06803,1 -1.61803,1 -0.55,0 -0.72189,-0.45 -0.38197,-1 z m -109.5,-6.5 c 0,-0.275 0.225,-0.5 0.5,-0.5 0.275,0 0.5,0.225 0.5,0.5 0,0.275 -0.225,0.5 -0.5,0.5 -0.275,0 -0.5,-0.225 -0.5,-0.5 z m 8.6003,-2.26531 c 0.60516,-0.40408 1.63349,-1.74719 2.28518,-2.98469 0.65169,-1.2375 1.84406,-2.25 2.64971,-2.25 0.80565,0 1.46481,-0.60896 1.46481,-1.35326 0,-2.0113 13.19576,-2.90671 19.41151,-1.31719 l 4.91151,1.256 -5.91151,1.70495 c -15.29407,4.41101 -27.72151,6.88745 -24.81121,4.94419 z m 277.3997,-2.73469 c 0,-0.275 0.225,-0.5 0.5,-0.5 0.275,0 0.5,0.225 0.5,0.5 0,0.275 -0.225,0.5 -0.5,0.5 -0.275,0 -0.5,-0.225 -0.5,-0.5 z m -147.1875,-1.18311 c 0.72188,-0.28887 1.58438,-0.25334 1.91667,0.0789 0.33229,0.33229 -0.25833,0.56864 -1.3125,0.52522 -1.16494,-0.048 -1.4019,-0.28494 -0.60417,-0.60417 z m 3.52084,-0.98355 c 0.36666,-0.36667 0.96666,-0.36667 1.33333,0 0.36667,0.36666 0.0667,0.66666 -0.66667,0.66666 -0.73333,0 -1.03333,-0.3 -0.66666,-0.66666 z m 11,-2 c 0.36666,-0.36667 0.96666,-0.36667 1.33333,0 0.36667,0.36666 0.0667,0.66666 -0.66667,0.66666 -0.73333,0 -1.03333,-0.3 -0.66666,-0.66666 z m -113,-1 c 0.36666,-0.36667 0.96666,-0.36667 1.33333,0 0.36667,0.36666 0.0667,0.66666 -0.66667,0.66666 -0.73333,0 -1.03333,-0.3 -0.66666,-0.66666 z m 15.53147,-4.87248 c 1.85065,-0.80347 4.10065,-1.42662 5,-1.38478 0.89936,0.0419 0.0602,0.68261 -1.86481,1.42392 -4.73669,1.8241 -7.3516,1.79145 -3.13519,-0.0391 z m -40.86481,-1.96086 c 0,-0.275 0.225,-0.5 0.5,-0.5 0.275,0 0.5,0.225 0.5,0.5 0,0.275 -0.225,0.5 -0.5,0.5 -0.275,0 -0.5,-0.225 -0.5,-0.5 z m 55.93398,-3.37663 c 1.78459,-3.33453 3.82205,-4.2454 8.73833,-3.90655 l 4.82769,0.33275 -3,1.34816 c -1.65,0.74149 -4.91764,1.94786 -7.26142,2.68083 l -4.26143,1.33266 z m 134.06602,-4.72316 c -12.46124,-4.23691 -18.5982,-6.82298 -11.5,-4.84601 1.65,0.45956 4.75984,0.75279 6.91075,0.65164 2.15091,-0.10115 4.42766,0.24509 5.05945,0.76943 0.63178,0.52433 3.09091,1.19736 5.46473,1.49562 2.82794,0.35531 5.49152,1.57437 7.72535,3.5357 4.75019,4.17072 2.58037,3.91556 -13.66028,-1.60638 z m -168,2.09979 c 0,-0.275 0.225,-0.5 0.5,-0.5 0.275,0 0.5,0.225 0.5,0.5 0,0.275 -0.225,0.5 -0.5,0.5 -0.275,0 -0.5,-0.225 -0.5,-0.5 z m 79.5,-17.18728 c 2.75,-2.6982 6.06316,-6.34736 7.36257,-8.10926 2.74586,-3.72319 7.99439,-4.3928 12.06787,-1.53963 l 2.37544,1.66383 -9.90294,4.98185 c -5.44661,2.74002 -11.47794,5.64047 -13.40294,6.44544 l -3.5,1.46358 z m 54,2.25329 c -4.15673,-2.0021 -4.56897,-2.42156 -2.44428,-2.48713 1.40565,-0.0434 4.08058,1.04612 5.94428,2.42112 4.26615,3.14747 2.94926,3.17231 -3.5,0.066 z m 43.5,1.93399 c 0,-0.275 0.225,-0.5 0.5,-0.5 0.275,0 0.5,0.225 0.5,0.5 0,0.275 -0.225,0.5 -0.5,0.5 -0.275,0 -0.5,-0.225 -0.5,-0.5 z m -126,-4.33128 c 0.825,-0.50974 2.625,-1.22771 4,-1.5955 1.73748,-0.46475 2.04249,-0.38604 1,0.25807 -0.825,0.50974 -2.625,1.22771 -4,1.5955 -1.73747,0.46475 -2.04248,0.38604 -1,-0.25807 z m 39.33334,-14.83538 c 0.36666,-0.36667 0.96666,-0.36667 1.33333,0 0.36667,0.36666 0.0667,0.66666 -0.66667,0.66666 -0.73333,0 -1.03333,-0.3 -0.66666,-0.66666 z"
         id="path30605" />
    </g>
  </g>
</svg>
